<?xml version="1.0" encoding="UTF-8"?>
<!DOCTYPE svg PUBLIC "-//W3C//DTD SVG 1.1//EN" "http://www.w3.org/Graphics/SVG/1.1/DTD/svg11.dtd">
<!-- Creator: CorelDRAW -->
<svg xmlns="http://www.w3.org/2000/svg" xml:space="preserve" width="18.8861mm" height="35.4142mm" version="1.1" style="shape-rendering:geometricPrecision; text-rendering:geometricPrecision; image-rendering:optimizeQuality; fill-rule:evenodd; clip-rule:evenodd"
viewBox="0 0 1291.63 2422"
 xmlns:xlink="http://www.w3.org/1999/xlink"
 xmlns:xodm="http://www.corel.com/coreldraw/odm/2003">
 <defs>
  <style type="text/css">
   <![CDATA[
    .str0 {stroke:#FEFEFE;stroke-width:11.58;stroke-miterlimit:22.9256}
    .fil0 {fill:#FEFEFE}
    .fil1 {fill:#00AFEF}
   ]]>
  </style>
 </defs>
 <g id="Camada_x0020_1">
  <metadata id="CorelCorpID_0Corel-Layer"/>
  <g id="_2620021630416">
   <path class="fil0 str0" d="M424.74 1302.93c-13.99,37.64 -359.1,529.98 -409.38,609.01 -25.61,40.27 7,122.15 17.73,169.82 16.35,72.7 52.94,274.57 78.92,332.27 15.91,-8.3 251.2,-349.01 279.86,-390.24l272.81 -397.22c17.79,10.64 103.45,115.53 123.95,140.34 37.83,45.8 360.2,423.93 376.56,430.81 24.38,-85.97 61.57,-173.46 88.48,-264.47 50.37,-170.28 46.15,-133.59 -45.18,-245.19l-239.63 -295.39c-26.64,-35.1 -52.5,-65.29 -76.13,-100.6 6.19,-25.26 20,-54.74 32.72,-81.33 38.81,-81.09 77.57,-177.82 105.46,-264.67 60.81,-158.13 58.77,-252.8 28.59,-429.14 -24.87,-145.36 -48.24,-263.9 -127.01,-363.72 -67.16,-85.1 -180.22,-158.24 -350.25,-146.15 -151.34,10.76 -236.61,96.38 -292.94,197.48 -35.71,64.11 -95.47,293.84 -113.36,380.19 -32.31,156.01 10.4,284.57 70.26,401.69 56.31,110.16 119.16,217.32 178.53,316.5zm721.58 846.12c27.84,-27.07 81.93,-214.29 95.99,-268.19 25.95,-99.44 45.77,-60.46 -93.09,-227.65 -105.06,-126.5 -222.06,-279.67 -328.45,-400.51l-328.24 -400.71c-50.49,-65.79 -100.77,-141.17 -148.44,-216.22 -19.38,-30.51 -49.09,-80.52 -62.63,-120.72 -21.82,-64.83 -18.39,-94.79 -28.23,-135.27 -0.42,-1.72 -0.81,-3.28 -1.27,-4.9 -0.45,-1.59 -1.11,-3.31 -1.57,-4.71 -0.44,-1.39 -1.41,-3.46 -1.8,-4.56 -0.4,-1.11 -1.08,-3.1 -1.92,-4.49 -27.42,74.47 -56.53,201.42 -65.54,285.75 -26.95,252.22 201.18,533.69 329.94,721.43 153.7,224.11 447.07,545.79 635.26,780.76zm-863.6 -1763.9c-7.75,101.91 101.24,276.31 145.69,337.01 35.54,48.54 69.63,93.58 103.89,136.91 23.66,29.94 84.49,110.37 108.86,129.76 46.57,-37.66 256.21,-399.78 301.81,-524.91 9.9,-27.16 31.7,-68.36 12.58,-92.29 -21.19,-26.52 -96.31,-74.94 -141.47,-94.24 -158.53,-67.71 -327.11,-42.87 -463.67,52.7 -27.88,19.51 -45.35,38.98 -67.68,55.05zm-158.97 1966.3c21.34,-20.2 47.46,-65.1 67.07,-93.65l194.67 -281.59c33.05,-47.19 247.47,-352.2 256.36,-379.31l-194.72 -247.14 -152.95 217.63c-52.07,75.8 -103.08,144.41 -157.31,219.06 -27.14,37.34 -51.53,71.88 -78.01,109.86 -33.67,48.3 -26.73,46.57 -5.58,147.77 20.26,96.96 40.71,165.29 59.08,267.96l11.39 39.4zm545.28 -1336.61l171.52 212.03c23.13,29.08 15.5,22.83 33.43,31.08 23.26,-59.21 65.75,-133.02 94.24,-197.98 29.79,-67.92 59.91,-137.43 80.83,-213.73 42.98,-156.75 -13.38,-375.42 -43.2,-521.94 -9.31,12.87 -10.72,34.2 -13.08,48.89 -8.55,53.23 -23.11,104.05 -42.48,150.96 -23.91,57.91 -57.45,120.52 -87.16,171.69l-194.09 319zm-390.63 -660.55c37.64,-14.5 266.4,-223.45 548.03,-95.04 28.41,12.96 49.66,24.6 74.48,43.07 18.64,13.86 54.92,48.44 70.67,54.59 18.31,-289.38 -388.47,-428.92 -589.82,-230.54 -40.69,40.1 -103.32,141.25 -103.37,227.93z"/>
   <path class="fil1 str0" d="M121.32 2350.06c21.73,-20.39 48.31,-65.72 68.28,-94.54l198.2 -284.28c33.66,-47.65 251.97,-355.58 261.02,-382.95l-198.25 -249.51 -155.73 219.72c-53.02,76.54 -104.95,145.8 -160.16,221.16 -27.63,37.7 -52.46,72.56 -79.43,110.92 -34.28,48.76 -27.21,47.02 -5.68,149.18 20.63,97.89 41.44,166.87 60.14,270.53l11.61 39.78zm1024.53 -205.78c27.84,-27.07 81.93,-214.29 95.99,-268.19 25.95,-99.43 45.77,-60.46 -93.09,-227.64 -105.06,-126.5 -222.06,-279.68 -328.45,-400.52l-328.24 -400.71c-50.49,-65.79 -100.77,-141.17 -148.44,-216.22 -19.38,-30.51 -49.09,-80.51 -62.63,-120.72 -21.82,-64.82 -18.39,-94.79 -28.23,-135.26 -0.42,-1.72 -0.81,-3.28 -1.27,-4.9 -0.45,-1.59 -1.11,-3.32 -1.57,-4.72 -0.44,-1.39 -1.41,-3.45 -1.8,-4.56 -0.4,-1.1 -1.08,-3.1 -1.92,-4.49 -27.42,74.47 -56.53,201.42 -65.54,285.76 -26.95,252.21 198.59,536.16 327.35,723.9 153.72,224.1 449.66,543.32 637.85,778.29zm-484.01 -1130.94l176.61 212.04c23.82,29.08 10.48,19.32 35.32,34.48 23.95,-59.22 66.81,-136.42 96.14,-201.38 30.67,-67.91 61.69,-137.42 83.23,-213.73 44.26,-156.76 -13.77,-375.42 -44.48,-521.94 -9.6,12.87 -11.05,34.2 -13.47,48.88 -8.8,53.23 -23.8,104.06 -43.74,150.97 -24.62,57.91 -59.16,120.52 -89.76,171.68l-199.85 319zm-383.44 -659.05c37.64,-14.5 266.4,-223.45 548.03,-95.04 28.41,12.96 49.66,24.6 74.48,43.07 18.64,13.86 54.92,48.44 70.67,54.59 18.31,-289.38 -388.47,-428.92 -589.82,-230.54 -40.69,40.1 -103.32,141.25 -103.37,227.93z"/>
  </g>
 </g>
</svg>
