<?xml version="1.0" encoding="UTF-8"?>
<!DOCTYPE svg PUBLIC "-//W3C//DTD SVG 1.1//EN" "http://www.w3.org/Graphics/SVG/1.1/DTD/svg11.dtd">
<!-- Creator: CorelDRAW -->
<svg xmlns="http://www.w3.org/2000/svg" xml:space="preserve" width="18.8861mm" height="35.4142mm" version="1.1" style="shape-rendering:geometricPrecision; text-rendering:geometricPrecision; image-rendering:optimizeQuality; fill-rule:evenodd; clip-rule:evenodd"
viewBox="0 0 267.32 501.27"
 xmlns:xlink="http://www.w3.org/1999/xlink"
 xmlns:xodm="http://www.corel.com/coreldraw/odm/2003">
 <defs>
  <style type="text/css">
   <![CDATA[
    .str0 {stroke:#FEFEFE;stroke-width:2.4;stroke-miterlimit:22.9256}
    .fil0 {fill:#FEFEFE}
    .fil1 {fill:#FF6699}
   ]]>
  </style>
 </defs>
 <g id="Camada_x0020_1">
  <metadata id="CorelCorpID_0Corel-Layer"/>
  <g id="_2584115146608">
   <path class="fil0 str0" d="M87.91 269.66c-2.89,7.79 -74.32,109.69 -84.73,126.04 -5.3,8.33 1.45,25.28 3.67,35.15 3.38,15.05 10.96,56.83 16.33,68.77 3.29,-1.72 51.99,-72.23 57.92,-80.77l56.46 -82.21c3.68,2.2 21.41,23.91 25.65,29.05 7.83,9.48 74.55,87.74 77.93,89.16 5.05,-17.79 12.74,-35.9 18.31,-54.74 10.42,-35.24 9.55,-27.65 -9.35,-50.75l-49.6 -61.14c-5.51,-7.27 -10.86,-13.51 -15.76,-20.82 1.28,-5.23 4.14,-11.33 6.77,-16.83 8.03,-16.78 16.05,-36.8 21.83,-54.78 12.59,-32.73 12.16,-52.32 5.92,-88.82 -5.15,-30.09 -9.98,-54.62 -26.29,-75.28 -13.9,-17.61 -37.3,-32.75 -72.49,-30.25 -31.32,2.23 -48.97,19.95 -60.63,40.87 -7.39,13.27 -19.76,60.81 -23.46,78.69 -6.69,32.29 2.15,58.9 14.54,83.14 11.65,22.8 24.66,44.98 36.95,65.5zm149.34 175.12c5.76,-5.6 16.96,-44.35 19.87,-55.51 5.37,-20.58 9.47,-12.51 -19.27,-47.11 -21.74,-26.18 -45.96,-57.88 -67.98,-82.89l-67.93 -82.93c-10.45,-13.62 -20.86,-29.22 -30.72,-44.75 -4.01,-6.31 -10.16,-16.66 -12.96,-24.99 -4.52,-13.42 -3.81,-19.62 -5.84,-28 -0.09,-0.36 -0.17,-0.68 -0.26,-1.01 -0.09,-0.33 -0.23,-0.69 -0.33,-0.98 -0.09,-0.29 -0.29,-0.72 -0.37,-0.94 -0.08,-0.23 -0.22,-0.64 -0.4,-0.93 -5.67,15.41 -11.7,41.69 -13.56,59.14 -5.58,52.2 41.64,110.46 68.29,149.31 31.81,46.38 92.53,112.96 131.48,161.59zm-178.73 -365.07c-1.6,21.09 20.95,57.19 30.15,69.75 7.36,10.05 14.41,19.37 21.5,28.34 4.9,6.2 17.49,22.84 22.53,26.86 9.64,-7.79 53.03,-82.74 62.46,-108.64 2.05,-5.62 6.56,-14.15 2.6,-19.1 -4.39,-5.49 -19.93,-15.51 -29.28,-19.5 -32.81,-14.01 -67.7,-8.87 -95.96,10.91 -5.77,4.04 -9.39,8.07 -14.01,11.39zm-32.9 406.95c4.42,-4.18 9.82,-13.47 13.88,-19.38l40.29 -58.28c6.84,-9.77 51.22,-72.89 53.06,-78.5l-40.3 -51.15 -31.66 45.04c-10.78,15.69 -21.33,29.89 -32.56,45.34 -5.62,7.73 -10.67,14.88 -16.15,22.74 -6.97,10 -5.53,9.64 -1.16,30.58 4.19,20.07 8.42,34.21 12.23,55.46l2.36 8.15zm112.85 -276.63l35.5 43.88c4.79,6.02 3.21,4.72 6.92,6.43 4.81,-12.25 13.61,-27.53 19.5,-40.97 6.17,-14.06 12.4,-28.44 16.73,-44.24 8.89,-32.44 -2.77,-77.7 -8.94,-108.02 -1.93,2.66 -2.22,7.08 -2.71,10.12 -1.77,11.02 -4.78,21.53 -8.79,31.24 -4.95,11.98 -11.89,24.94 -18.04,35.53l-40.17 66.02zm-80.85 -136.71c7.79,-3 55.14,-46.25 113.42,-19.67 5.88,2.68 10.28,5.09 15.42,8.91 3.86,2.87 11.37,10.03 14.63,11.3 3.79,-59.89 -80.4,-88.77 -122.07,-47.71 -8.42,8.3 -21.38,29.23 -21.39,47.17z"/>
   <path class="fil1 str0" d="M25.11 486.38c4.5,-4.22 10,-13.6 14.13,-19.57l41.02 -58.84c6.97,-9.86 52.15,-73.59 54.02,-79.26l-41.03 -51.64 -32.23 45.47c-10.97,15.84 -21.72,30.18 -33.15,45.77 -5.72,7.8 -10.86,15.02 -16.44,22.96 -7.09,10.09 -5.63,9.73 -1.17,30.88 4.27,20.26 8.58,34.54 12.45,55.99l2.4 8.23zm32.51 -413.05c7.79,-3 55.14,-46.25 113.42,-19.67 5.88,2.68 10.28,5.09 15.42,8.91 3.86,2.87 11.37,10.03 14.63,11.3 3.79,-59.89 -80.4,-88.77 -122.07,-47.71 -8.42,8.3 -21.38,29.23 -21.39,47.17zm79.36 136.4l36.55 43.88c4.93,6.02 2.17,4 7.31,7.14 4.96,-12.26 13.83,-28.23 19.9,-41.68 6.35,-14.06 12.77,-28.44 17.23,-44.23 9.16,-32.44 -2.85,-77.7 -9.21,-108.02 -1.99,2.66 -2.29,7.08 -2.79,10.12 -1.82,11.02 -4.92,21.54 -9.05,31.24 -5.09,11.98 -12.24,24.94 -18.58,35.53l-41.36 66.02zm100.17 234.06c5.76,-5.6 16.96,-44.35 19.87,-55.51 5.37,-20.58 9.47,-12.51 -19.27,-47.11 -21.74,-26.18 -45.96,-57.88 -67.98,-82.89l-67.93 -82.93c-10.45,-13.62 -20.86,-29.22 -30.72,-44.75 -4.01,-6.31 -10.16,-16.66 -12.96,-24.98 -4.52,-13.42 -3.81,-19.62 -5.84,-28 -0.09,-0.36 -0.17,-0.68 -0.26,-1.01 -0.09,-0.33 -0.23,-0.69 -0.32,-0.98 -0.09,-0.29 -0.29,-0.71 -0.37,-0.94 -0.08,-0.23 -0.22,-0.64 -0.4,-0.93 -5.67,15.41 -11.7,41.69 -13.56,59.14 -5.58,52.2 41.1,110.97 67.75,149.82 31.81,46.38 93.06,112.45 132.01,161.08z"/>
  </g>
 </g>
</svg>
