<?xml version="1.0" encoding="UTF-8"?>
<!DOCTYPE svg PUBLIC "-//W3C//DTD SVG 1.1//EN" "http://www.w3.org/Graphics/SVG/1.1/DTD/svg11.dtd">
<!-- Creator: CorelDRAW -->
<svg xmlns="http://www.w3.org/2000/svg" xml:space="preserve" width="18.7173mm" height="35.2136mm" version="1.1" style="shape-rendering:geometricPrecision; text-rendering:geometricPrecision; image-rendering:optimizeQuality; fill-rule:evenodd; clip-rule:evenodd"
viewBox="0 0 429.16 807.4"
 xmlns:xlink="http://www.w3.org/1999/xlink"
 xmlns:xodm="http://www.corel.com/coreldraw/odm/2003">
 <defs>
  <style type="text/css">
   <![CDATA[
    .fil0 {fill:#FEFEFE}
    .fil1 {fill:#FFF212}
   ]]>
  </style>
 </defs>
 <g id="Camada_x0020_1">
  <metadata id="CorelCorpID_0Corel-Layer"/>
  <g id="_2620017804496">
   <g>
    <path class="fil0" d="M140.47 434.89c-4.69,12.62 -120.39,177.68 -137.25,204.18 -8.59,13.5 2.35,40.95 5.94,56.93 5.48,24.37 17.75,92.05 26.46,111.4 5.33,-2.78 84.22,-117.01 93.83,-130.83l91.46 -133.17c5.96,3.57 34.68,38.73 41.56,47.05 12.68,15.36 120.76,142.13 126.24,144.43 8.17,-28.82 20.64,-58.15 29.67,-88.67 16.89,-57.09 15.47,-44.79 -15.15,-82.2l-80.34 -99.03c-8.93,-11.77 -17.6,-21.89 -25.52,-33.73 2.08,-8.47 6.7,-18.35 10.97,-27.27 13.01,-27.19 26.01,-59.61 35.36,-88.73 20.39,-53.02 19.7,-84.75 9.59,-143.87 -8.34,-48.73 -16.17,-88.47 -42.58,-121.94 -22.52,-28.53 -60.42,-53.05 -117.42,-49 -50.74,3.61 -79.33,32.31 -98.21,66.21 -11.97,21.49 -32.01,98.51 -38,127.46 -10.83,52.3 3.49,95.4 23.55,134.67 18.88,36.93 39.95,72.86 59.86,106.11zm241.92 283.67c9.33,-9.08 27.47,-71.84 32.18,-89.91 8.7,-33.34 15.34,-20.27 -31.21,-76.32 -35.22,-42.41 -74.45,-93.76 -110.12,-134.27l-110.05 -134.34c-16.93,-22.06 -33.79,-47.33 -49.77,-72.49 -6.5,-10.23 -16.46,-26.99 -21,-40.47 -7.32,-21.73 -6.17,-31.78 -9.46,-45.35 -0.14,-0.58 -0.27,-1.1 -0.43,-1.64 -0.15,-0.53 -0.37,-1.11 -0.53,-1.58 -0.15,-0.47 -0.47,-1.16 -0.6,-1.53 -0.13,-0.37 -0.36,-1.04 -0.64,-1.51 -9.19,24.97 -18.95,67.53 -21.97,95.8 -9.03,84.56 67.45,178.93 110.61,241.86 51.53,75.13 149.88,182.98 212.98,261.76zm-289.53 -591.36c-2.6,34.17 33.94,92.63 48.84,112.99 11.92,16.27 23.34,31.37 34.83,45.9 7.93,10.04 28.33,37 36.5,43.5 15.61,-12.62 85.9,-134.03 101.18,-175.98 3.32,-9.11 10.63,-22.92 4.22,-30.94 -7.1,-8.89 -32.29,-25.13 -47.43,-31.59 -53.15,-22.7 -109.67,-14.37 -155.45,17.67 -9.35,6.54 -15.2,13.07 -22.69,18.46zm-53.3 659.22c7.16,-6.77 15.91,-21.83 22.49,-31.4l65.26 -94.4c11.08,-15.82 82.96,-118.08 85.95,-127.17l-65.28 -82.86 -51.28 72.96c-17.46,25.41 -34.56,48.42 -52.74,73.44 -9.1,12.52 -17.28,24.1 -26.15,36.83 -11.29,16.19 -8.96,15.61 -1.87,49.54 6.79,32.51 13.65,55.41 19.81,89.84l3.82 13.21zm182.81 -448.11l57.5 71.09c7.75,9.75 5.2,7.65 11.21,10.42 7.8,-19.85 22.04,-44.6 31.59,-66.37 9.99,-22.77 20.09,-46.08 27.1,-71.66 14.41,-52.55 -4.48,-125.86 -14.48,-174.98 -3.12,4.32 -3.6,11.47 -4.39,16.39 -2.87,17.85 -7.75,34.88 -14.24,50.61 -8.02,19.41 -19.26,40.4 -29.22,57.56l-65.07 106.95zm-130.96 -221.45c12.62,-4.86 89.31,-74.91 183.73,-31.86 9.52,4.34 16.65,8.25 24.97,14.44 6.25,4.65 18.41,16.24 23.69,18.3 6.14,-97.02 -130.24,-143.8 -197.74,-77.29 -13.64,13.45 -34.64,47.36 -34.66,76.41z"/>
    <path id="_1" class="fil0" d="M144.09 436.24c-0,0.01 -0.01,0.02 -0.01,0.03 -0.02,0.06 -0.05,0.12 -0.07,0.17 -3.74,9.23 -50.83,77.79 -89.36,133.87 -22.52,32.78 -42.1,61.29 -48.17,70.83l0.01 0.01c-5.87,9.22 -0.71,27.7 3.42,42.51 1.16,4.16 2.25,8.06 3.02,11.5 1.33,5.9 3.1,14.57 5.12,24.5 5.49,26.88 12.9,63.17 18.98,80.73 14.27,-17.91 69.32,-97.32 85.59,-120.79l3.62 -5.21 -0 -0 91.46 -133.17c1.2,-1.77 3.62,-2.22 5.38,-1.02 0.02,0.01 0.04,0.03 0.06,0.04 6.51,4.3 31.24,34.33 40.4,45.44l1.9 2.3 0.01 -0.01c8.03,9.72 53.85,63.59 87.91,102.55 6.28,7.19 12.15,13.86 17.27,19.65 -20.57,-25.28 -44.26,-53.2 -68.53,-81.79 -50.08,-59 -102.63,-120.9 -135.89,-169.39 -5.67,-8.27 -11.33,-16.27 -17.26,-24.64 -9.24,-13.06 -19.12,-27.03 -28.89,-41.65 7.97,13.77 15.94,27.2 23.73,40.21 0.63,1.05 0.7,2.27 0.3,3.34zm153.27 -4.99c2.08,-8.47 6.7,-18.35 10.97,-27.27 13.01,-27.19 26.01,-59.61 35.36,-88.73 20.39,-53.02 19.7,-84.75 9.59,-143.87 -8.34,-48.73 -16.17,-88.47 -42.58,-121.94 -22.52,-28.53 -60.42,-53.05 -117.42,-49 -50.74,3.61 -79.33,32.31 -98.21,66.21 -11.97,21.49 -32.01,98.51 -38,127.46 -10.83,52.3 3.49,95.4 23.55,134.67 18.88,36.93 39.95,72.86 59.86,106.11 -4.69,12.62 -120.39,177.68 -137.25,204.18 -8.59,13.5 2.35,40.95 5.94,56.93 5.48,24.37 17.75,92.05 26.46,111.4 5.33,-2.78 84.22,-117.01 93.83,-130.83l91.46 -133.17c5.96,3.57 34.68,38.73 41.56,47.05 12.68,15.36 120.76,142.13 126.24,144.43 8.17,-28.82 20.64,-58.15 29.67,-88.67 16.89,-57.09 15.47,-44.79 -15.15,-82.2l-80.34 -99.03c-8.93,-11.77 -17.6,-21.89 -25.52,-33.73zm85.02 287.31c9.33,-9.08 27.47,-71.84 32.18,-89.91 8.7,-33.34 15.34,-20.27 -31.21,-76.32 -35.22,-42.41 -74.45,-93.76 -110.12,-134.27l-110.05 -134.34c-16.93,-22.06 -33.79,-47.33 -49.77,-72.49 -6.5,-10.23 -16.46,-26.99 -21,-40.47 -7.32,-21.73 -6.17,-31.78 -9.46,-45.35 -0.14,-0.58 -0.27,-1.1 -0.43,-1.64 -0.15,-0.53 -0.37,-1.11 -0.53,-1.58 -0.15,-0.47 -0.47,-1.16 -0.6,-1.53 -0.13,-0.37 -0.36,-1.04 -0.64,-1.51 -9.19,24.97 -18.95,67.53 -21.97,95.8 -9.03,84.56 67.45,178.93 110.61,241.86 51.53,75.13 149.88,182.98 212.98,261.76zm-169.36 -388.97c15.61,-12.62 85.9,-134.03 101.18,-175.98 3.32,-9.11 10.63,-22.92 4.22,-30.94 -7.1,-8.89 -32.29,-25.13 -47.43,-31.59 -53.15,-22.7 -109.67,-14.37 -155.45,17.67 -9.35,6.54 -15.2,13.07 -22.69,18.46 -2.6,34.17 33.94,92.63 48.84,112.99 11.92,16.27 23.34,31.37 34.83,45.9 7.93,10.04 28.33,37 36.5,43.5zm-173.46 456.83c7.16,-6.77 15.91,-21.83 22.49,-31.4l65.26 -94.4c11.08,-15.82 82.96,-118.08 85.95,-127.17l-65.28 -82.86 -51.28 72.96c-17.46,25.41 -34.56,48.42 -52.74,73.44 -9.1,12.52 -17.28,24.1 -26.15,36.83 -11.29,16.19 -8.96,15.61 -1.87,49.54 6.79,32.51 13.65,55.41 19.81,89.84l3.82 13.21zm182.81 -448.11l57.5 71.09c7.75,9.75 5.2,7.65 11.21,10.42 7.8,-19.85 22.04,-44.6 31.59,-66.37 9.99,-22.77 20.09,-46.08 27.1,-71.66 14.41,-52.55 -4.48,-125.86 -14.48,-174.98 -3.12,4.32 -3.6,11.47 -4.39,16.39 -2.87,17.85 -7.75,34.88 -14.24,50.61 -8.02,19.41 -19.26,40.4 -29.22,57.56l-65.07 106.95zm-130.96 -221.45c12.62,-4.86 89.31,-74.91 183.73,-31.86 9.52,4.34 16.65,8.25 24.97,14.44 6.25,4.65 18.41,16.24 23.69,18.3 6.14,-97.02 -130.24,-143.8 -197.74,-77.29 -13.64,13.45 -34.64,47.36 -34.66,76.41zm290.12 605.48c2.05,2.26 3.8,4.15 5.18,5.61 2.44,-8.08 5.15,-16.16 7.98,-24.27 -3.42,8.32 -6.7,14.76 -9.49,17.55 -0.12,0.12 -0.25,0.24 -0.39,0.36 -0.96,0.77 -2.17,1.01 -3.29,0.76zm24.31 -50.14c3.13,-9 6.15,-18.04 8.83,-27.08l2.44 -8.23c0,-0 0,-0.01 0,-0.01l-0 -0c6.28,-21.07 9.15,-30.72 7.91,-37.5 -1,-5.45 -5.07,-10.08 -12.57,-18.63 -1.88,-2.14 -3.95,-4.5 -6.19,-7.11 9.57,11.49 14.6,17.99 16.88,23.57 2.91,7.11 1.44,11.76 -1.39,20.76 -1.02,3.25 -2.24,7.13 -3.42,11.65 -2.13,8.16 -6.96,25.34 -12.48,42.58zm-5.72 -105.88c-0.02,-0.02 -0.03,-0.05 -0.05,-0.07l-80.17 -98.83c-0.08,-0.1 -0.15,-0.19 -0.22,-0.29 -2.45,-3.23 -5.54,-7.14 -8.59,-11.01 -5.84,-7.41 -11.49,-14.59 -16.93,-22.71 -0.63,-0.94 -0.79,-2.05 -0.55,-3.06 1.11,-4.52 2.84,-9.29 4.84,-14.06 1.87,-4.45 4.17,-9.32 6.4,-13.97 4.98,-10.41 9.97,-21.6 14.74,-33.08 -2.6,5.35 -5.33,10.75 -8.04,16.13 -6.34,12.58 -12.6,25.01 -16.86,35.85l-0.01 -0c-0.03,0.07 -0.06,0.13 -0.08,0.2 -0.89,1.94 -3.18,2.8 -5.12,1.91 -0.51,-0.23 -1.31,-0.58 -1.94,-0.86 -1.85,-0.8 -2.73,-1.19 -3.96,-2.34 -0.9,-0.83 -1.72,-1.9 -3.26,-3.9 -0.75,-0.97 -1.72,-2.23 -3.34,-4.27 -0.04,-0.05 -0.08,-0.09 -0.12,-0.14l-57.5 -71.09 0.01 -0c-1,-1.24 -1.17,-3.02 -0.3,-4.46l65.03 -106.88c5.41,-9.32 11.21,-19.78 16.63,-30.46 4.52,-8.9 8.78,-17.95 12.36,-26.62 3.21,-7.78 6.03,-15.92 8.4,-24.35 2.32,-8.26 4.21,-16.75 5.59,-25.4 0.12,-0.76 0.24,-1.62 0.36,-2.5 0,-0.04 0.01,-0.08 0.01,-0.12 0.7,-5.03 1.54,-11.09 4.69,-15.44l0.01 0c0.49,-0.67 1.19,-1.19 2.03,-1.44 -6.09,-18.71 -14.26,-35.71 -26.52,-51.25 -11.9,-15.08 -28.25,-29.01 -49.6,-37.92 -17.85,-7.45 -39.24,-11.4 -64.51,-9.6 -24.56,1.74 -43.72,9.54 -59,20.97 -15.35,11.49 -26.9,26.73 -36.1,43.25 -4.77,8.56 -10.96,26.57 -17.02,46.79 1.07,0.19 2.05,0.82 2.66,1.82 0.39,0.64 0.66,1.36 0.85,1.88 0.04,0.1 0.08,0.19 0.11,0.29l0.03 0.08 -0 0 0.06 0.14c0.03,0.07 0.06,0.14 0.09,0.21 0.12,0.29 0.26,0.63 0.41,1.08 0.01,0.04 0.03,0.08 0.04,0.11l0.14 0.42c0.01,0.03 0.02,0.05 0.03,0.08 0.14,0.38 0.28,0.8 0.42,1.28l-0.01 0c0,0.01 0,0.02 0.01,0.03l0.16 0.6c0.03,0.1 0.06,0.2 0.09,0.3l0.21 0.83 -0 0c0,0 0,0.01 0,0.01 1.26,5.17 1.88,9.76 2.54,14.63 1.1,8.08 2.31,16.98 6.83,30.41 2.18,6.48 5.72,13.85 9.51,20.85 3.79,7.01 7.87,13.7 11.1,18.77 2.27,3.57 4.55,7.13 6.84,10.69 -7.69,-12.54 -16.11,-27.74 -22.7,-43 -7.68,-17.77 -12.93,-35.72 -11.85,-49.92l0.01 0c0.08,-1.1 0.63,-2.16 1.6,-2.85 3.24,-2.33 6.25,-4.97 9.4,-7.73 -3.1,2.02 -5.48,3.47 -7.19,4.13l0 -0c-0.43,0.17 -0.9,0.26 -1.39,0.26 -2.13,0 -3.87,-1.73 -3.87,-3.87 0.01,-13.28 4.14,-27.4 9.96,-40.23 7.49,-16.52 17.88,-31.08 25.85,-38.94 24.7,-24.33 58.24,-34.03 90.99,-31.96 16,1.01 31.84,4.84 46.37,11.15 14.57,6.33 27.84,15.15 38.64,26.12 18.79,19.07 30.21,44.61 28.33,74.85 -0.01,0.43 -0.1,0.87 -0.26,1.3 -0.78,1.99 -3.03,2.98 -5.02,2.2 -0.07,-0.03 -0.14,-0.06 -0.21,-0.08 5.7,8.45 1.1,19.97 -2.61,29.24 -0.63,1.58 -1.24,3.1 -1.73,4.44 -7.61,20.88 -28.64,61.13 -49.87,98.05 -21.74,37.82 -43.88,72.35 -52.32,79.45 -1.38,1.28 -3.53,1.4 -5.05,0.19 -7.22,-5.75 -22.84,-25.81 -32.43,-38.12l0.01 -0.01c-1.87,-2.4 -3.52,-4.52 -4.7,-6.01 -5.69,-7.19 -11.43,-14.63 -17.3,-22.36 -6.05,-7.98 -11.9,-15.84 -17.62,-23.65 -0.55,-0.75 -1.13,-1.56 -1.74,-2.41 1.44,2.14 2.88,4.27 4.32,6.39 8.25,12.1 16.61,23.82 24.98,34.74 0.02,0.02 0.04,0.05 0.06,0.07l109.97 134.25c22,24.98 45.49,54.27 68.55,83.02 14.3,17.83 28.44,35.46 41.62,51.32 3.74,4.51 8.66,10.36 13.02,15.55 0.26,0.31 0.51,0.61 0.77,0.91zm-340.49 199.4c-5.52,8.51 -11.66,17.98 -17.21,23.32 -0.46,0.5 -1.06,0.89 -1.76,1.09 -2.05,0.59 -4.2,-0.59 -4.79,-2.64l-3.72 -12.88c-0.09,-0.23 -0.16,-0.47 -0.2,-0.73 -3.65,-20.38 -7.54,-36.71 -11.51,-53.4 -2.69,-11.29 -5.43,-22.76 -8.26,-36.33 -1.06,-5.09 -1.94,-9.04 -2.69,-12.44 -5.12,-23.17 -5.48,-24.83 5.16,-40.11 4.12,-5.9 8.34,-11.93 13.02,-18.53 4.44,-6.26 8.78,-12.31 13.18,-18.37l11.91 -16.32c13.72,-18.8 27,-36.98 40.72,-56.96 0.03,-0.04 0.05,-0.08 0.08,-0.12l51.19 -72.85c0.23,-0.35 0.51,-0.66 0.86,-0.94 1.68,-1.32 4.12,-1.03 5.44,0.65l65.28 82.86 -0 0c0.77,0.98 1.05,2.32 0.64,3.59 -3,9.13 -67.87,101.67 -84.2,124.96l-2.17 3.09c-0.03,0.04 -0.05,0.08 -0.08,0.12l-65.19 94.3c-0.02,0.03 -0.04,0.06 -0.06,0.09 -1.82,2.65 -3.68,5.52 -5.63,8.52z"/>
   </g>
   <g>
    <path class="fil1" d="M38.74 785.95c7.28,-6.84 16.2,-22.03 22.89,-31.7l66.45 -95.31c11.28,-15.97 84.47,-119.21 87.51,-128.39l-66.47 -83.65 -52.21 73.66c-17.77,25.66 -35.19,48.88 -53.7,74.14 -9.26,12.64 -17.59,24.33 -26.63,37.19 -11.49,16.35 -9.12,15.76 -1.9,50.01 6.92,32.82 13.89,55.95 20.16,90.7l3.89 13.34zm52.66 -669.1c12.62,-4.86 89.31,-74.91 183.73,-31.86 9.52,4.34 16.65,8.25 24.97,14.44 6.25,4.65 18.41,16.24 23.69,18.3 6.14,-97.02 -130.24,-143.8 -197.74,-77.29 -13.64,13.45 -34.64,47.36 -34.66,76.41zm128.55 220.95l59.21 71.09c7.99,9.75 3.51,6.48 11.84,11.56 8.03,-19.85 22.4,-45.74 32.23,-67.51 10.28,-22.77 20.68,-46.07 27.9,-71.65 14.84,-52.55 -4.62,-125.86 -14.91,-174.98 -3.22,4.32 -3.7,11.47 -4.52,16.39 -2.95,17.85 -7.98,34.89 -14.67,50.61 -8.25,19.41 -19.83,40.4 -30.09,57.56l-67 106.95zm162.27 379.16c9.33,-9.08 27.47,-71.84 32.18,-89.91 8.7,-33.34 15.34,-20.27 -31.21,-76.32 -35.22,-42.41 -74.45,-93.76 -110.12,-134.28l-110.05 -134.34c-16.93,-22.06 -33.79,-47.33 -49.77,-72.49 -6.5,-10.23 -16.46,-26.99 -21,-40.47 -7.32,-21.73 -6.17,-31.78 -9.46,-45.35 -0.14,-0.58 -0.27,-1.1 -0.43,-1.64 -0.15,-0.53 -0.37,-1.11 -0.53,-1.58 -0.15,-0.47 -0.47,-1.16 -0.6,-1.53 -0.13,-0.37 -0.36,-1.04 -0.64,-1.51 -9.19,24.97 -18.95,67.53 -21.97,95.8 -9.03,84.56 66.58,179.75 109.75,242.69 51.53,75.13 150.75,182.15 213.85,260.93z"/>
    <path id="_1_0" class="fil0" d="M40.51 778.21c3.93,-4.91 8.17,-11.41 12.1,-17.4 1.97,-3.02 3.86,-5.9 5.84,-8.76 0,-0 0,-0.01 0.01,-0.01l-0.01 -0 66.45 -95.31c0.04,-0.06 0.09,-0.12 0.14,-0.19l2.24 -3.17c15.78,-22.33 75.71,-107.08 83.8,-122.26l-61.78 -77.76 -49.23 69.46c-0.01,0.02 -0.03,0.03 -0.04,0.05 -13.92,20.1 -27.54,38.59 -41.61,57.71 -3.98,5.41 -8,10.87 -12.08,16.43 -4.65,6.35 -9.04,12.42 -13.37,18.46 -4.26,5.96 -8.62,12.11 -13.22,18.66 -8.88,12.64 -8.56,14.09 -4.05,34.34 0.83,3.75 1.8,8.09 2.77,12.65 2.84,13.47 5.63,25.07 8.37,36.49 4.06,16.92 8.04,33.47 11.77,54.1l1.9 6.49zm-1.77 7.74c7.28,-6.84 16.2,-22.03 22.89,-31.7l66.45 -95.31c11.28,-15.97 84.47,-119.21 87.51,-128.39l-66.47 -83.65 -52.21 73.66c-17.77,25.66 -35.19,48.88 -53.7,74.14 -9.26,12.64 -17.59,24.33 -26.63,37.19 -11.49,16.35 -9.12,15.76 -1.9,50.01 6.92,32.82 13.89,55.95 20.16,90.7l3.89 13.34zm52.66 -669.1c12.62,-4.86 89.31,-74.91 183.73,-31.86 9.52,4.34 16.65,8.25 24.97,14.44 6.25,4.65 18.41,16.24 23.69,18.3 6.14,-97.02 -130.24,-143.8 -197.74,-77.29 -13.64,13.45 -34.64,47.36 -34.66,76.41zm128.55 220.95l59.21 71.09c7.99,9.75 3.51,6.48 11.84,11.56 8.03,-19.85 22.4,-45.74 32.23,-67.51 10.28,-22.77 20.68,-46.07 27.9,-71.65 14.84,-52.55 -4.62,-125.86 -14.91,-174.98 -3.22,4.32 -3.7,11.47 -4.52,16.39 -2.95,17.85 -7.98,34.89 -14.67,50.61 -8.25,19.41 -19.83,40.4 -30.09,57.56l-67 106.95zm162.27 379.16c9.33,-9.08 27.47,-71.84 32.18,-89.91 8.7,-33.34 15.34,-20.27 -31.21,-76.32 -35.22,-42.41 -74.45,-93.76 -110.12,-134.28l-110.05 -134.34c-16.93,-22.06 -33.79,-47.33 -49.77,-72.49 -6.5,-10.23 -16.46,-26.99 -21,-40.47 -7.32,-21.73 -6.17,-31.78 -9.46,-45.35 -0.14,-0.58 -0.27,-1.1 -0.43,-1.64 -0.15,-0.53 -0.37,-1.11 -0.53,-1.58 -0.15,-0.47 -0.47,-1.16 -0.6,-1.53 -0.13,-0.37 -0.36,-1.04 -0.64,-1.51 -9.19,24.97 -18.95,67.53 -21.97,95.8 -9.03,84.56 66.58,179.75 109.75,242.69 51.53,75.13 150.75,182.15 213.85,260.93zm-286.55 -607.06c1.14,-0.75 2.42,-1.59 3.81,-2.52 26.95,-17.85 95.42,-63.23 177.26,-25.92 4.93,2.25 9.21,4.37 13.26,6.68 0.07,0.04 0.14,0.08 0.21,0.13 4.07,2.33 7.99,4.9 12.2,8.04 2.29,1.7 5.15,4.13 8.19,6.71 3.22,2.73 6.65,5.65 9.52,7.83 -0.16,-25 -10.35,-46.24 -26.3,-62.44 -10.11,-10.26 -22.53,-18.52 -36.19,-24.45 -13.7,-5.95 -28.66,-9.56 -43.79,-10.52 -30.7,-1.94 -62.07,7.08 -85.07,29.75 -7.42,7.31 -17.13,20.98 -24.21,36.61 -4.4,9.7 -7.77,20.1 -8.89,30.1zm129.04 227.58l57.42 68.94c0.01,0.01 0.01,0.02 0.02,0.03l0.01 -0.01c2.45,2.99 3.84,4.92 4.74,6.17 0.51,0.71 0.82,1.13 1.05,1.36 0.2,0.19 0.55,0.44 1.21,0.85 4.49,-10.48 10.42,-22.32 16.37,-34.21 4.94,-9.88 9.91,-19.8 14.17,-29.25 5.15,-11.4 10.32,-22.93 15.04,-34.62 4.73,-11.74 9.09,-23.83 12.67,-36.49 12.87,-45.58 -0.74,-107.81 -11.12,-155.28 -0.2,-0.9 -0.39,-1.8 -0.59,-2.7 -0.05,0.34 -0.11,0.69 -0.17,1.05 -1.48,8.96 -3.49,17.75 -5.96,26.29 -2.52,8.72 -5.53,17.15 -8.96,25.21 -3.77,8.86 -8.25,18.1 -12.99,27.17 -5.68,10.88 -11.72,21.46 -17.34,30.86 -0.05,0.09 -0.11,0.18 -0.17,0.26l-65.39 104.38zm157.36 373.11c2.82,-4.95 6.31,-13.59 9.89,-23.59 7.89,-22.03 15.83,-49.91 18.7,-60.93 1.32,-5.05 2.51,-8.84 3.51,-12.01 2.29,-7.28 3.47,-11.04 1.63,-15.54 -2.28,-5.59 -8.9,-13.47 -22.57,-29.75 -0.06,-0.07 -0.12,-0.15 -0.17,-0.22 -3.76,-4.48 -8.04,-9.57 -12.84,-15.36 -13.7,-16.5 -27.62,-33.85 -41.69,-51.4 -22.91,-28.57 -46.25,-57.67 -68.37,-82.79 -0.05,-0.06 -0.1,-0.12 -0.15,-0.19l-109.98 -134.26c-0.07,-0.09 -0.14,-0.18 -0.2,-0.27 -8.47,-11.04 -16.91,-22.88 -25.23,-35.08 -8.42,-12.36 -16.65,-24.99 -24.6,-37.52 -3.27,-5.15 -7.42,-11.97 -11.37,-19.26 -3.95,-7.3 -7.67,-15.07 -10.02,-22.06 -4.76,-14.13 -6.02,-23.4 -7.17,-31.83 -0.36,-2.68 -0.72,-5.27 -1.17,-7.9 -3.23,10.32 -6.4,22.26 -9.19,34.41 -3.93,17.16 -7.1,34.71 -8.6,48.69 -7.86,73.61 50.34,156.37 93.46,217.69 5.47,7.77 10.69,15.2 15.64,22.41 32.38,47.21 83.79,107.21 133.14,164.81 27.65,32.27 54.65,63.78 77.35,91.94z"/>
   </g>
  </g>
 </g>
</svg>
