<?xml version="1.0" encoding="UTF-8"?>
<!DOCTYPE svg PUBLIC "-//W3C//DTD SVG 1.1//EN" "http://www.w3.org/Graphics/SVG/1.1/DTD/svg11.dtd">
<!-- Creator: CorelDRAW -->
<svg xmlns="http://www.w3.org/2000/svg" xml:space="preserve" width="349.504mm" height="95.2499mm" version="1.1" style="shape-rendering:geometricPrecision; text-rendering:geometricPrecision; image-rendering:optimizeQuality; fill-rule:evenodd; clip-rule:evenodd"
viewBox="0 0 28614.7 7798.33"
 xmlns:xlink="http://www.w3.org/1999/xlink"
 xmlns:xodm="http://www.corel.com/coreldraw/odm/2003">
 <defs>
  <style type="text/css">
   <![CDATA[
    .str0 {stroke:#663001;stroke-width:13.86;stroke-miterlimit:22.9256}
    .str1 {stroke:#373435;stroke-width:6.24;stroke-miterlimit:22.9256}
    .str2 {stroke:#00A859;stroke-width:6.24;stroke-miterlimit:22.9256}
    .fil4 {fill:none;fill-rule:nonzero}
    .fil1 {fill:#663001}
    .fil2 {fill:#373435;fill-rule:nonzero}
    .fil3 {fill:#00A859;fill-rule:nonzero}
    .fil0 {fill:#663001;fill-rule:nonzero}
   ]]>
  </style>
 </defs>
 <g id="Camada_x0020_1">
  <metadata id="CorelCorpID_0Corel-Layer"/>
  <path class="fil0" d="M26926.65 1719.71c-35.6,0 -69.29,5.73 -101.08,17.15 -31.79,11.45 -57.52,30.21 -77.22,56.29 -19.73,26.04 -30.85,61.31 -33.38,105.83l419.53 0c0,-47.05 -9.56,-83.62 -28.61,-109.65 -19.08,-26.08 -44.18,-44.19 -75.33,-54.36 -31.14,-10.16 -65.78,-15.26 -103.9,-15.26zm9.52 825.71c-99.14,0 -188.16,-18.75 -266.97,-56.25 -78.81,-37.53 -141.45,-95.03 -187.82,-172.59 -46.42,-77.56 -69.63,-174.81 -69.63,-291.77l0 -38.14c0,-111.84 22.27,-204.68 66.77,-278.38 44.48,-73.74 105.19,-129.35 182.11,-166.89 76.93,-37.5 162.42,-56.25 256.46,-56.25 166.54,0 292.42,42.9 377.58,128.74 85.2,85.81 127.76,210.05 127.76,372.77l0 106.78 -709.37 0c2.57,49.6 14.32,90.92 35.3,123.99 20.98,33.04 47.98,56.88 81.05,71.47 33.04,14.65 68.65,21.97 106.78,21.97 55.94,0 100.13,-8.57 132.53,-25.73 32.43,-17.16 53.71,-40.36 63.88,-69.62l270.79 0c-20.35,110.59 -70.58,193.23 -150.66,247.93 -80.06,54.64 -185.6,81.98 -316.53,81.98zm-1191.83 -242.18c41.96,0 79.45,-9.87 112.53,-29.56 33.03,-19.7 59.42,-48.3 79.15,-85.81 19.7,-37.53 29.56,-82.33 29.56,-134.45l0 -95.32c0,-50.88 -9.87,-93.44 -29.56,-127.79 -19.72,-34.32 -46.12,-60.07 -79.15,-77.23 -33.08,-17.16 -70.57,-25.74 -112.53,-25.74 -59.72,0 -108.67,21.32 -146.81,63.89 -38.14,42.58 -57.24,107.75 -57.24,195.45l0 38.14c0,91.55 19.4,160.85 58.19,207.86 38.77,47.07 87.38,70.57 145.86,70.57zm-70.53 242.18c-87.73,0 -164.3,-19.7 -229.77,-59.12 -65.47,-39.43 -116,-97.56 -151.61,-174.49 -35.61,-76.92 -53.42,-172.58 -53.42,-287l0 -38.14c0,-109.31 17.21,-201.16 51.52,-275.55 34.33,-74.35 83.88,-130.59 148.75,-168.74 64.83,-38.13 142.99,-57.23 234.54,-57.23 57.19,0 111.54,13.04 163.02,39.09 51.47,26.08 94.38,63.87 128.75,113.47l0 -451.91 293.66 0 0 1334.81 -270.8 0 0 -137.28c-25.44,40.67 -65.16,77.87 -119.17,111.54 -54.05,33.67 -119.18,50.54 -195.46,50.54zm-1149.84 -13.35c-81.38,0 -148.09,-9.86 -200.21,-29.56 -52.12,-19.74 -90.6,-55.95 -115.4,-108.72 -24.76,-52.77 -37.15,-129.35 -37.15,-229.77l0 -978.22 293.65 0 0 934.38c0,62.28 8.59,105.84 25.74,130.59 17.17,24.78 53.07,37.19 107.73,37.19 15.27,0 27.98,-0.3 38.14,-0.93 10.16,-0.65 20.34,-1.6 30.51,-2.88l0 242.18c-12.7,1.29 -26.35,2.23 -40.97,2.87 -14.64,0.65 -30.51,1.29 -47.66,1.89 -17.17,0.65 -35.32,0.99 -54.37,0.99zm-1058.32 -194.5c41.96,0 79.46,-7.66 112.49,-22.88 33.08,-15.28 59.11,-38.48 78.21,-69.62 19.05,-31.15 28.61,-66.41 28.61,-105.84l0 -41.95 -228.83 0c-43.25,0 -75.34,11.45 -96.32,34.31 -20.98,22.91 -31.43,48.94 -31.43,78.21 0,38.13 10.46,68.94 31.43,92.49 20.98,23.51 56.25,35.27 105.84,35.27zm-95.32 207.85c-72.5,0 -134.45,-13.99 -185.93,-41.95 -51.47,-27.99 -90.61,-66.41 -117.29,-115.37 -26.68,-48.94 -40.02,-103.3 -40.02,-163.07 0,-100.43 30.8,-177.31 92.44,-230.72 61.7,-53.36 154.8,-80.1 279.37,-80.1l286.07 0 0 -41.95c0,-61.01 -14.33,-102.97 -42.91,-125.84 -28.61,-22.91 -68.34,-34.32 -119.21,-34.32 -48.31,0 -83.88,7.3 -106.79,21.93 -22.88,14.62 -35.57,38.45 -38.15,71.52l-293.64 0c3.81,-61.05 23.21,-115.7 58.16,-164.01 34.97,-48.31 85.16,-86.45 150.64,-114.42 65.47,-27.97 145.26,-41.96 239.35,-41.96 88.97,0 167.14,13.35 234.53,40.07 67.36,26.69 119.82,69.6 157.32,128.7 37.49,59.13 56.24,138.22 56.24,237.41l0 371.83c0,53.41 1.3,100.14 3.83,140.16 2.52,40.07 6.34,79.15 11.45,117.29l-280.32 0c-1.29,-21.61 -2.87,-40.67 -4.76,-57.18 -1.94,-16.57 -2.88,-36.9 -2.88,-61.05 -30.49,40.67 -72.75,74.68 -126.81,102.01 -54.01,27.33 -124.24,41.02 -210.69,41.02zm-972.52 -242.18c58.47,0 107.08,-23.85 145.86,-71.51 38.78,-47.67 58.17,-116.65 58.17,-206.92l0 -38.14c0,-87.69 -18.74,-152.86 -56.28,-195.45 -37.5,-42.57 -86.75,-63.89 -147.75,-63.89 -40.71,0 -77.86,8.58 -111.58,25.74 -33.68,17.16 -60.36,42.91 -80.05,77.23 -19.74,34.35 -29.56,76.92 -29.56,127.79l0 95.32c0,52.12 9.82,96.92 29.56,134.45 19.69,37.51 46.37,66.11 80.05,85.81 33.72,19.68 70.88,29.56 111.58,29.56zm-514.9 598.76l0 -1392.05 270.79 0 0 137.28c26.69,-40.67 66.46,-77.86 119.18,-111.54 52.77,-33.67 117.94,-50.54 195.46,-50.54 142.38,0 250.46,41.96 324.2,125.88 73.71,83.92 110.6,209.1 110.6,375.64l0 38.14c0,114.42 -17.8,210.08 -53.42,287 -35.59,76.93 -85.79,135.06 -150.61,174.49 -64.87,39.42 -141.75,59.12 -230.77,59.12 -57.19,0 -111.54,-13.04 -163.02,-39.09 -51.48,-26.07 -94.38,-63.87 -128.71,-113.46l0 509.14 -293.7 0zm-356.55 -1487.37c-54.7,0 -96.95,-14.32 -126.81,-42.95 -29.9,-28.57 -44.84,-65.12 -44.84,-109.6 0,-44.5 14.94,-81.05 44.84,-109.67 29.86,-28.61 72.11,-42.89 126.81,-42.89 54.65,0 96.92,14.28 126.77,42.89 29.91,28.62 44.83,65.17 44.83,109.67 0,44.48 -14.92,81.04 -44.83,109.6 -29.85,28.63 -72.12,42.95 -126.77,42.95zm-146.85 1105.99l0 -1010.66 293.67 0 0 1010.66 -293.67 0zm-638.78 24.8c-99.2,0 -187.53,-19.09 -265.09,-57.22 -77.52,-38.15 -138.56,-95.98 -183.07,-173.5 -44.48,-77.56 -66.74,-174.18 -66.74,-289.89l0 -38.14c0,-106.79 23.21,-197.69 69.62,-272.67 46.38,-75 108.66,-131.89 186.87,-170.68 78.17,-38.77 164.31,-58.17 258.41,-58.17 101.66,0 186.87,17.51 255.51,52.46 68.65,34.92 121.42,81.66 158.26,140.16 36.85,58.49 57.83,123.32 62.94,194.49l-303.18 0c-8.92,-45.74 -27.03,-81.04 -54.36,-105.84 -27.32,-24.75 -67.05,-37.15 -119.17,-37.15 -40.72,0 -77.22,9.51 -109.66,28.57 -32.43,19.09 -57.83,47.36 -76.28,84.86 -18.45,37.54 -27.66,85.5 -27.66,143.97l0 38.14c0,62.29 8.92,113.78 26.71,154.49 17.81,40.67 42.56,70.87 74.35,90.56 31.79,19.7 69.29,29.56 112.54,29.56 44.48,0 82.28,-11.76 113.42,-35.26 31.15,-23.55 51.19,-58.82 60.11,-105.84l303.18 0c-5.11,78.82 -27.97,147.45 -68.65,205.93 -40.67,58.46 -95.67,103.3 -164.95,134.43 -69.28,31.16 -150.33,46.73 -243.11,46.73zm-833.32 -1130.79c-54.69,0 -96.95,-14.32 -126.81,-42.95 -29.9,-28.57 -44.84,-65.12 -44.84,-109.6 0,-44.5 14.94,-81.05 44.84,-109.67 29.86,-28.61 72.12,-42.89 126.81,-42.89 54.66,0 96.91,14.28 126.77,42.89 29.91,28.62 44.83,65.17 44.83,109.67 0,44.48 -14.93,81.04 -44.83,109.6 -29.86,28.63 -72.11,42.95 -126.77,42.95zm-146.85 1105.99l0 -1010.66 293.67 0 0 1010.66 -293.67 0zm-1172.79 0l0 -1010.66 270.8 0 0 137.28c25.44,-45.73 65.16,-84.21 119.17,-115.36 54.07,-31.16 126.19,-46.72 216.44,-46.72 120.78,0 211.98,32.44 273.67,97.27 61.63,64.81 92.44,158.25 92.44,280.3l0 657.89 -293.65 0 0 -591.13c0,-66.11 -14.29,-116 -42.91,-149.68 -28.61,-33.72 -75.32,-50.53 -140.15,-50.53 -47.02,0 -85.5,9.21 -115.37,27.62 -29.86,18.45 -51.82,42.61 -65.75,72.47 -13.99,29.9 -20.98,63.23 -20.98,100.13l0 591.13 -293.71 0zm-787.54 24.8c-115.65,0 -204.03,-33.08 -265.04,-99.18 -61.05,-66.08 -91.56,-166.5 -91.56,-301.27l0 -635.02 293.67 0 0 589.25c0,66.11 13.68,116.31 41.01,150.63 27.33,34.31 71.52,51.47 132.52,51.47 43.25,0 79.15,-8.87 107.77,-26.69 28.57,-17.79 49.89,-41.95 63.88,-72.45 13.99,-30.51 20.98,-64.83 20.98,-102.96l0 -589.25 293.66 0 0 1010.66 -270.78 0 0 -137.28c-26.69,45.73 -67.06,84.21 -121.11,115.35 -54.01,31.16 -122.36,46.73 -204.99,46.73zm-2006.08 -24.8l0 -1334.81 350.88 0 369.94 676.92 366.12 -676.92 343.25 0 0 1334.81 -343.25 0 0 -764.67 -276.49 507.22 -190.71 0 -276.49 -507.22 0 764.67 -343.25 0zm-1210.85 -183.05c41.96,0 79.46,-7.66 112.5,-22.88 33.07,-15.28 59.1,-38.48 78.2,-69.62 19.04,-31.15 28.61,-66.41 28.61,-105.84l0 -41.95 -228.84 0c-43.24,0 -75.33,11.45 -96.31,34.31 -20.98,22.91 -31.44,48.94 -31.44,78.21 0,38.13 10.46,68.94 31.44,92.49 20.98,23.51 56.25,35.27 105.84,35.27zm-95.32 207.85c-72.51,0 -134.46,-13.99 -185.94,-41.95 -51.47,-27.99 -90.61,-66.41 -117.29,-115.37 -26.68,-48.94 -40.02,-103.3 -40.02,-163.07 0,-100.43 30.81,-177.31 92.44,-230.72 61.71,-53.36 154.8,-80.1 279.37,-80.1l286.07 0 0 -41.95c0,-61.01 -14.34,-102.97 -42.9,-125.84 -28.62,-22.91 -68.35,-34.32 -119.22,-34.32 -48.3,0 -83.87,7.3 -106.78,21.93 -22.88,14.62 -35.57,38.45 -38.15,71.52l-293.65 0c3.82,-61.05 23.21,-115.7 58.17,-164.01 34.97,-48.31 85.16,-86.45 150.63,-114.42 65.47,-27.97 145.26,-41.96 239.35,-41.96 88.97,0 167.14,13.35 234.54,40.07 67.35,26.69 119.81,69.6 157.31,128.7 37.5,59.13 56.24,138.22 56.24,237.41l0 371.83c0,53.41 1.3,100.14 3.83,140.16 2.52,40.07 6.35,79.15 11.45,117.29l-280.31 0c-1.29,-21.61 -2.87,-40.67 -4.76,-57.18 -1.94,-16.57 -2.88,-36.9 -2.88,-61.05 -30.49,40.67 -72.75,74.68 -126.81,102.01 -54.01,27.33 -124.24,41.02 -210.68,41.02zm-1029.76 -24.8l0 -1010.66 270.78 0 0 137.28c10.18,-22.86 27.33,-47.01 51.48,-72.47 24.16,-25.39 53.42,-46.72 87.75,-63.87 34.31,-17.16 72.44,-25.75 114.4,-25.75 21.62,0 38.77,1.29 51.48,3.83 12.7,2.52 24.16,5.1 34.33,7.62l0 253.63c-6.35,-3.82 -20.98,-8.28 -43.85,-13.38 -22.91,-5.07 -49.6,-7.59 -80.09,-7.59 -44.5,0 -81.05,8.87 -109.67,26.67 -28.61,17.81 -49.58,41.96 -62.93,72.46 -13.35,30.51 -20,64.83 -20,102.97l0 589.24 -293.69 0zm-695.98 -183.05c41.94,0 79.45,-7.66 112.49,-22.88 33.07,-15.28 59.11,-38.48 78.2,-69.62 19.05,-31.15 28.61,-66.41 28.61,-105.84l0 -41.95 -228.83 0c-43.25,0 -75.33,11.45 -96.31,34.31 -20.98,22.91 -31.44,48.94 -31.44,78.21 0,38.13 10.46,68.94 31.44,92.49 20.98,23.51 56.25,35.27 105.84,35.27zm-95.32 207.85c-72.51,0 -134.47,-13.99 -185.94,-41.95 -51.48,-27.99 -90.6,-66.41 -117.29,-115.37 -26.69,-48.94 -40.03,-103.3 -40.03,-163.07 0,-100.43 30.81,-177.31 92.45,-230.72 61.7,-53.36 154.8,-80.1 279.38,-80.1l286.05 0 0 -41.95c0,-61.01 -14.32,-102.97 -42.89,-125.84 -28.61,-22.91 -68.35,-34.32 -119.22,-34.32 -48.31,0 -83.88,7.3 -106.79,21.93 -22.86,14.62 -35.57,38.45 -38.13,71.52l-293.67 0c3.82,-61.05 23.21,-115.7 58.18,-164.01 34.95,-48.31 85.15,-86.45 150.63,-114.42 65.47,-27.97 145.25,-41.96 239.34,-41.96 88.97,0 167.14,13.35 234.54,40.07 67.36,26.69 119.82,69.6 157.33,128.7 37.49,59.13 56.23,138.22 56.23,237.41l0 371.83c0,53.41 1.29,100.14 3.82,140.16 2.53,40.07 6.35,79.15 11.45,117.29l-280.31 0c-1.29,-21.61 -2.87,-40.67 -4.76,-57.18 -1.93,-16.57 -2.88,-36.9 -2.88,-61.05 -30.49,40.67 -72.74,74.68 -126.8,102.01 -54.01,27.33 -124.25,41.02 -210.68,41.02zm-1983.24 -24.8l0 -1010.66 276.54 0 0 144.91c22.88,-44.48 58.48,-83.9 106.79,-118.22 48.3,-34.33 108.02,-51.49 179.24,-51.49 80.1,0 142.05,15.27 185.94,45.77 43.83,30.5 75.93,71.82 96.27,123.94 25.43,-48.3 64.85,-88.66 118.22,-121.06 53.41,-32.44 116.35,-48.66 188.81,-48.66 109.32,0 192.58,30.86 249.77,92.49 57.24,61.66 85.85,153.5 85.85,275.57l0 667.41 -293.66 0 0 -594.96c0,-71.2 -11.15,-121.71 -33.37,-151.61 -22.27,-29.86 -58.18,-44.78 -107.78,-44.78 -29.21,0 -56.24,7.93 -81.04,23.8 -24.8,15.92 -44.5,38.48 -59.12,67.69 -14.59,29.26 -21.92,64.24 -21.92,104.89l0 594.96 -293.67 0 0 -594.96c0,-71.2 -11.11,-121.71 -33.37,-151.61 -22.22,-29.86 -58.77,-44.78 -109.64,-44.78 -29.24,0 -55.95,7.93 -80.1,23.8 -24.16,15.92 -43.51,38.48 -58.13,67.69 -14.64,29.26 -21.93,64.24 -21.93,104.89l0 594.96 -293.71 0zm-981.99 -1105.99l209.73 -305.11 286.03 0 209.79 305.11 -228.84 0 -123.94 -133.5 -123.94 133.5 -228.83 0zm286.02 922.94c41.96,0 79.46,-7.66 112.48,-22.88 33.08,-15.28 59.13,-38.48 78.21,-69.62 19.05,-31.15 28.61,-66.41 28.61,-105.84l0 -41.95 -228.83 0c-43.24,0 -75.32,11.45 -96.31,34.31 -20.98,22.91 -31.46,48.94 -31.46,78.21 0,38.13 10.48,68.94 31.46,92.49 20.98,23.51 56.25,35.27 105.84,35.27zm-95.32 207.85c-72.51,0 -134.45,-13.99 -185.94,-41.95 -51.49,-27.99 -90.6,-66.41 -117.28,-115.37 -26.69,-48.94 -40.04,-103.3 -40.04,-163.07 0,-100.43 30.8,-177.31 92.46,-230.72 61.68,-53.36 154.77,-80.1 279.36,-80.1l286.06 0 0 -41.95c0,-61.01 -14.33,-102.97 -42.89,-125.84 -28.61,-22.91 -68.34,-34.32 -119.23,-34.32 -48.3,0 -83.86,7.3 -106.77,21.93 -22.88,14.62 -35.57,38.45 -38.14,71.52l-293.66 0c3.82,-61.05 23.21,-115.7 58.18,-164.01 34.97,-48.31 85.15,-86.45 150.61,-114.42 65.47,-27.97 145.27,-41.96 239.35,-41.96 88.98,0 167.14,13.35 234.53,40.07 67.36,26.69 119.83,69.6 157.33,128.7 37.49,59.13 56.24,138.22 56.24,237.41l0 371.83c0,53.41 1.29,100.14 3.81,140.16 2.54,40.07 6.35,79.15 11.46,117.29l-280.31 0c-1.29,-21.61 -2.88,-40.67 -4.76,-57.18 -1.93,-16.57 -2.88,-36.9 -2.88,-61.05 -30.51,40.67 -72.77,74.68 -126.81,102.01 -54.01,27.33 -124.23,41.02 -210.68,41.02zm-1058.36 0c-122.06,0 -229.79,-22.58 -323.23,-67.71 -93.43,-45.12 -166.19,-117.93 -218.32,-218.36 -52.12,-100.38 -78.21,-233.26 -78.21,-398.5l0 -36.25c0,-116.95 15.92,-217.39 47.67,-301.3 31.79,-83.91 75.97,-152.55 132.57,-205.92 56.54,-53.42 122.36,-92.85 197.34,-118.23 75,-25.45 155.74,-38.15 242.19,-38.15 77.55,0 150.65,8.89 219.29,26.69 68.64,17.79 128.71,45.77 180.18,83.9 51.48,38.15 93.15,87.73 124.94,148.75 31.73,61.01 50.83,135.38 57.18,223.09l-356.59 0c-11.45,-69.89 -38.14,-120.13 -80.09,-150.64 -41.96,-30.5 -90.27,-45.77 -144.91,-45.77 -50.84,0 -96.32,12.4 -136.36,37.19 -40.02,24.8 -71.51,64.52 -94.37,119.18 -22.91,54.66 -34.32,128.4 -34.32,221.2l0 40.06c0,73.72 6.99,136 20.98,186.88 13.98,50.84 33.37,91.51 58.13,122.01 24.8,30.49 53.11,52.47 84.86,65.82 31.78,13.33 65.46,19.98 101.08,19.98 64.81,0 116.64,-15.57 155.43,-46.72 38.78,-31.14 61.94,-81.04 69.58,-149.68l356.59 0c-5.06,89.02 -23.21,164.31 -54.36,225.95 -31.14,61.7 -72.47,111.25 -123.94,148.75 -51.48,37.53 -111.54,64.87 -180.18,82.03 -68.69,17.16 -143.03,25.74 -223.12,25.74z"/>
  <rect class="fil1 str0" x="7740.81" y="5746.49" width="20866.95" height="124.77"/>
  <path class="fil2 str1" d="M13167.06 6666.93l90.9 -8.17c4.26,36.77 14.3,66.91 30.13,90.57 15.83,23.49 40.35,42.56 73.55,57.2 33.19,14.47 70.65,21.79 112.18,21.79 36.94,0 69.46,-5.45 97.71,-16.51 28.26,-11.07 49.2,-26.22 62.98,-45.46 13.8,-19.24 20.77,-40.17 20.77,-62.65 0,-22.81 -6.64,-42.73 -19.92,-59.92 -13.27,-17.02 -35.24,-31.32 -65.87,-43.06 -19.58,-7.49 -62.99,-19.41 -130.23,-35.58 -67.24,-16.17 -114.23,-31.32 -141.12,-45.62 -34.89,-18.39 -60.77,-41.2 -77.8,-68.27 -17.19,-27.07 -25.71,-57.54 -25.71,-91.07 0,-37.11 10.55,-71.67 31.5,-103.67 20.93,-32.18 51.41,-56.52 91.75,-73.2 40.17,-16.69 84.95,-25.02 134.15,-25.02 54.13,0 101.97,8.68 143.33,26.22 41.37,17.37 73.2,43.06 95.5,77.12 22.3,33.88 34.21,72.35 35.92,115.24l-92.95 7.16c-4.94,-46.14 -21.79,-81.04 -50.56,-104.53 -28.77,-23.66 -71.33,-35.41 -127.51,-35.41 -58.56,0 -101.28,10.73 -128.02,32.18 -26.72,21.45 -40.17,47.32 -40.17,77.62 0,26.22 9.53,47.84 28.43,64.86 18.73,16.86 67.24,34.39 145.9,52.1 78.65,17.87 132.61,33.36 161.89,46.64 42.39,19.58 73.88,44.26 94.14,74.4 20.26,29.96 30.3,64.52 30.3,103.67 0,38.99 -11.07,75.41 -33.36,109.81 -22.3,34.39 -54.13,61.11 -95.85,80.18 -41.71,19.07 -88.52,28.6 -140.78,28.6 -66.05,0 -121.38,-9.7 -165.98,-28.94 -44.78,-19.23 -79.67,-48.17 -105.03,-86.99 -25.54,-38.64 -38.82,-82.39 -40.17,-131.25zm1047.96 234.92l0 -78.82c-41.2,60.09 -97.04,90.05 -167.68,90.05 -31.15,0 -60.26,-5.95 -87.32,-17.87 -27.07,-12.08 -47.16,-27.07 -60.27,-45.11 -13.11,-18.22 -22.3,-40.35 -27.57,-66.56 -3.58,-17.7 -5.45,-45.62 -5.45,-83.76l0 -328.04 89.89 0 0 293.31c0,46.81 1.87,78.48 5.44,94.65 5.62,23.66 17.54,42.05 35.93,55.5 18.21,13.44 40.68,20.26 67.58,20.26 26.9,0 52.1,-6.81 75.58,-20.6 23.5,-13.79 40.17,-32.68 50.05,-56.34 9.7,-23.67 14.64,-58.23 14.64,-103.34l0 -283.43 89.89 0 0 530.11 -80.69 0zm568.07 -66.39c-33.36,28.43 -65.54,48.35 -96.35,60.09 -30.82,11.74 -63.84,17.53 -99.25,17.53 -58.22,0 -102.99,-14.12 -134.31,-42.56 -31.32,-28.25 -46.99,-64.52 -46.99,-108.61 0,-25.87 5.96,-49.53 17.71,-70.98 11.91,-21.45 27.4,-38.47 46.47,-51.42 19.24,-12.94 40.68,-22.81 64.69,-29.45 17.71,-4.59 44.43,-9.02 80.01,-13.44 72.51,-8.51 126.14,-18.9 160.36,-30.82 0.34,-12.26 0.51,-20.08 0.51,-23.32 0,-36.43 -8.51,-62.14 -25.54,-77.12 -22.98,-20.26 -57.2,-30.3 -102.48,-30.3 -42.39,0 -73.71,7.48 -93.8,22.29 -20.26,14.81 -35.07,41.03 -44.77,78.82l-87.84 -12.26c8,-37.62 21.11,-68.09 39.49,-91.25 18.39,-23.15 44.95,-40.85 79.67,-53.45 34.56,-12.43 74.9,-18.73 120.53,-18.73 45.28,0 82.22,5.28 110.65,16.01 28.25,10.73 49.2,24 62.48,40.17 13.28,16.17 22.64,36.6 28.09,61.28 2.89,15.33 4.42,42.9 4.42,82.57l0 119.17c0,83.24 1.87,135.84 5.62,158.14 3.58,22.3 11.07,43.58 21.97,64.01l-93.97 0c-9.02,-18.9 -14.81,-41.03 -17.37,-66.39zm-7.15 -199.18c-32.68,13.28 -81.72,24.52 -147.08,33.71 -37.11,5.28 -63.33,11.24 -78.65,17.88 -15.33,6.64 -27.07,16.34 -35.41,28.93 -8.34,12.77 -12.6,26.9 -12.6,42.57 0,23.66 9.02,43.57 27.24,59.41 18.22,15.83 44.78,23.83 79.67,23.83 34.56,0 65.37,-7.49 92.43,-22.64 26.9,-14.98 46.81,-35.58 59.41,-61.63 9.7,-20.26 14.48,-50.05 14.48,-89.37l0.51 -32.69zm657.61 265.57l-200.02 -530.11 96.18 0 113.38 317.48c12.26,34.21 23.66,69.8 34.04,106.74 8.01,-27.92 19.07,-61.45 33.54,-100.78l117.8 -323.44 92.27 0 -200.71 530.11 -86.48 0zm332.13 -265.05c0,-97.89 27.24,-170.41 81.88,-217.56 45.46,-39.16 101.12,-58.74 166.66,-58.74 72.69,0 132.27,23.83 178.58,71.5 46.14,47.49 69.28,113.38 69.28,197.3 0,68.09 -10.21,121.55 -30.64,160.53 -20.43,38.99 -50.22,69.29 -89.37,90.91 -38.99,21.61 -81.72,32.34 -127.85,32.34 -74.22,0 -134.14,-23.66 -179.94,-71.16 -45.79,-47.49 -68.6,-115.93 -68.6,-205.13zm91.93 0.17c0,67.75 14.81,118.48 44.43,152.01 29.79,33.71 67.07,50.56 112.18,50.56 44.6,0 81.72,-16.86 111.5,-50.73 29.62,-33.88 44.43,-85.46 44.43,-154.75 0,-65.37 -14.97,-114.91 -44.77,-148.44 -29.79,-33.71 -66.91,-50.56 -111.17,-50.56 -45.11,0 -82.39,16.68 -112.18,50.21 -29.62,33.53 -44.43,84.1 -44.43,151.68zm81.71 -330.6l65.38 -139.93 118.49 0 -109.29 139.93 -74.57 0zm392.39 437.17l88.86 -14.3c4.94,35.58 18.9,62.82 41.71,81.89 22.82,18.89 54.82,28.43 95.68,28.43 41.37,0 72.01,-8.34 92.1,-25.19 19.91,-16.69 29.96,-36.43 29.96,-59.07 0,-20.26 -9.02,-36.26 -26.9,-47.84 -12.6,-8 -43.24,-18.04 -91.93,-30.47 -65.71,-16.51 -111.17,-30.82 -136.7,-42.9 -25.36,-12.26 -44.6,-28.94 -57.7,-50.38 -13.11,-21.29 -19.75,-44.95 -19.75,-70.82 0,-23.66 5.44,-45.46 16.17,-65.54 10.9,-20.09 25.54,-36.78 44.09,-50.05 13.96,-10.22 33.03,-18.9 57.03,-26.05 24.17,-7.15 49.88,-10.73 77.46,-10.73 41.53,0 77.97,5.96 109.28,18.04 31.5,11.92 54.65,28.26 69.63,48.69 14.81,20.6 25.19,48.01 30.81,82.4l-87.84 12.26c-3.91,-27.58 -15.49,-49.2 -34.56,-64.69 -19.07,-15.5 -45.96,-23.15 -80.86,-23.15 -41.03,0 -70.48,6.8 -88.01,20.43 -17.54,13.62 -26.39,29.62 -26.39,47.84 0,11.58 3.58,22.13 10.9,31.49 7.32,9.54 18.72,17.54 34.39,23.83 9.02,3.41 35.24,11.07 79.15,22.98 63.33,16.86 107.59,30.82 132.79,41.54 25.19,10.73 44.94,26.55 59.24,46.98 14.47,20.6 21.61,46.14 21.61,76.78 0,29.79 -8.68,57.88 -26.22,84.26 -17.53,26.39 -42.73,46.81 -75.58,61.29 -33.03,14.47 -70.3,21.61 -111.85,21.61 -68.77,0 -121.38,-14.29 -157.46,-42.73 -36.09,-28.6 -59.07,-70.81 -69.12,-126.82zm569.95 158.32l0 -102.14 102.14 0 0 102.14c0,37.62 -6.64,68.09 -20.09,91.25 -13.27,23.15 -34.56,41.2 -63.66,53.79l-24.51 -38.81c19.07,-8.34 33.03,-20.6 41.88,-36.61 9.02,-16.17 14.13,-39.32 15.15,-69.62l-50.9 0zm554.28 0l0 -731.32 99.42 0 383.71 574.03 0 -574.03 92.95 0 0 731.32 -99.42 0 -383.71 -574.03 0 574.03 -92.95 0zm693.71 -265.05c0,-97.89 27.24,-170.41 81.88,-217.56 45.46,-39.16 101.12,-58.74 166.66,-58.74 72.69,0 132.27,23.83 178.58,71.5 46.14,47.49 69.28,113.38 69.28,197.3 0,68.09 -10.21,121.55 -30.64,160.53 -20.43,38.99 -50.22,69.29 -89.37,90.91 -38.99,21.61 -81.72,32.34 -127.85,32.34 -74.22,0 -134.14,-23.66 -179.94,-71.16 -45.79,-47.49 -68.6,-115.93 -68.6,-205.13zm91.93 0.17c0,67.75 14.81,118.48 44.43,152.01 29.79,33.71 67.07,50.56 112.18,50.56 44.6,0 81.72,-16.86 111.5,-50.73 29.62,-33.88 44.43,-85.46 44.43,-154.75 0,-65.37 -14.97,-114.91 -44.77,-148.44 -29.79,-33.71 -66.91,-50.56 -111.17,-50.56 -45.11,0 -82.39,16.68 -112.18,50.21 -29.62,33.53 -44.43,84.1 -44.43,151.68zm474.1 106.56l88.86 -14.3c4.94,35.58 18.9,62.82 41.71,81.89 22.82,18.89 54.82,28.43 95.68,28.43 41.37,0 72.01,-8.34 92.1,-25.19 19.91,-16.69 29.96,-36.43 29.96,-59.07 0,-20.26 -9.02,-36.26 -26.9,-47.84 -12.6,-8 -43.24,-18.04 -91.93,-30.47 -65.71,-16.51 -111.17,-30.82 -136.7,-42.9 -25.36,-12.26 -44.6,-28.94 -57.7,-50.38 -13.11,-21.29 -19.75,-44.95 -19.75,-70.82 0,-23.66 5.44,-45.46 16.17,-65.54 10.9,-20.09 25.54,-36.78 44.09,-50.05 13.96,-10.22 33.03,-18.9 57.03,-26.05 24.17,-7.15 49.88,-10.73 77.46,-10.73 41.53,0 77.97,5.96 109.28,18.04 31.5,11.92 54.65,28.26 69.63,48.69 14.81,20.6 25.19,48.01 30.81,82.4l-87.84 12.26c-3.91,-27.58 -15.49,-49.2 -34.56,-64.69 -19.07,-15.5 -45.96,-23.15 -80.86,-23.15 -41.03,0 -70.48,6.8 -88.01,20.43 -17.54,13.62 -26.39,29.62 -26.39,47.84 0,11.58 3.58,22.13 10.9,31.49 7.32,9.54 18.72,17.54 34.39,23.83 9.02,3.41 35.24,11.07 79.15,22.98 63.33,16.86 107.59,30.82 132.79,41.54 25.19,10.73 44.94,26.55 59.24,46.98 14.47,20.6 21.61,46.14 21.61,76.78 0,29.79 -8.68,57.88 -26.22,84.26 -17.53,26.39 -42.73,46.81 -75.58,61.29 -33.03,14.47 -70.3,21.61 -111.85,21.61 -68.77,0 -121.38,-14.29 -157.46,-42.73 -36.09,-28.6 -59.07,-70.81 -69.12,-126.82zm510.7 0l88.86 -14.3c4.94,35.58 18.9,62.82 41.71,81.89 22.82,18.89 54.82,28.43 95.68,28.43 41.37,0 72.01,-8.34 92.1,-25.19 19.91,-16.69 29.96,-36.43 29.96,-59.07 0,-20.26 -9.02,-36.26 -26.9,-47.84 -12.6,-8 -43.24,-18.04 -91.93,-30.47 -65.71,-16.51 -111.17,-30.82 -136.7,-42.9 -25.36,-12.26 -44.6,-28.94 -57.7,-50.38 -13.11,-21.29 -19.75,-44.95 -19.75,-70.82 0,-23.66 5.44,-45.46 16.17,-65.54 10.9,-20.09 25.54,-36.78 44.09,-50.05 13.96,-10.22 33.03,-18.9 57.03,-26.05 24.17,-7.15 49.88,-10.73 77.46,-10.73 41.53,0 77.97,5.96 109.28,18.04 31.5,11.92 54.65,28.26 69.63,48.69 14.81,20.6 25.19,48.01 30.81,82.4l-87.84 12.26c-3.91,-27.58 -15.49,-49.2 -34.56,-64.69 -19.07,-15.5 -45.96,-23.15 -80.86,-23.15 -41.03,0 -70.48,6.8 -88.01,20.43 -17.54,13.62 -26.39,29.62 -26.39,47.84 0,11.58 3.58,22.13 10.9,31.49 7.32,9.54 18.72,17.54 34.39,23.83 9.02,3.41 35.24,11.07 79.15,22.98 63.33,16.86 107.59,30.82 132.79,41.54 25.19,10.73 44.94,26.55 59.24,46.98 14.47,20.6 21.61,46.14 21.61,76.78 0,29.79 -8.68,57.88 -26.22,84.26 -17.53,26.39 -42.73,46.81 -75.58,61.29 -33.03,14.47 -70.3,21.61 -111.85,21.61 -68.77,0 -121.38,-14.29 -157.46,-42.73 -36.09,-28.6 -59.07,-70.81 -69.12,-126.82zm892.71 91.93c-33.36,28.43 -65.54,48.35 -96.35,60.09 -30.82,11.74 -63.84,17.53 -99.25,17.53 -58.22,0 -102.99,-14.12 -134.31,-42.56 -31.32,-28.25 -46.99,-64.52 -46.99,-108.61 0,-25.87 5.96,-49.53 17.71,-70.98 11.91,-21.45 27.4,-38.47 46.47,-51.42 19.24,-12.94 40.68,-22.81 64.69,-29.45 17.71,-4.59 44.43,-9.02 80.01,-13.44 72.51,-8.51 126.14,-18.9 160.36,-30.82 0.34,-12.26 0.51,-20.08 0.51,-23.32 0,-36.43 -8.51,-62.14 -25.54,-77.12 -22.98,-20.26 -57.2,-30.3 -102.48,-30.3 -42.39,0 -73.71,7.48 -93.8,22.29 -20.26,14.81 -35.07,41.03 -44.77,78.82l-87.84 -12.26c8,-37.62 21.11,-68.09 39.49,-91.25 18.39,-23.15 44.95,-40.85 79.67,-53.45 34.56,-12.43 74.9,-18.73 120.53,-18.73 45.28,0 82.22,5.28 110.65,16.01 28.25,10.73 49.2,24 62.48,40.17 13.28,16.17 22.64,36.6 28.09,61.28 2.89,15.33 4.42,42.9 4.42,82.57l0 119.17c0,83.24 1.87,135.84 5.62,158.14 3.58,22.3 11.07,43.58 21.97,64.01l-93.97 0c-9.02,-18.9 -14.81,-41.03 -17.37,-66.39zm-7.15 -199.18c-32.68,13.28 -81.72,24.52 -147.08,33.71 -37.11,5.28 -63.33,11.24 -78.65,17.88 -15.33,6.64 -27.07,16.34 -35.41,28.93 -8.34,12.77 -12.6,26.9 -12.6,42.57 0,23.66 9.02,43.57 27.24,59.41 18.22,15.83 44.78,23.83 79.67,23.83 34.56,0 65.37,-7.49 92.43,-22.64 26.9,-14.98 46.81,-35.58 59.41,-61.63 9.7,-20.26 14.48,-50.05 14.48,-89.37l0.51 -32.69zm529.08 265.57l0 -731.32 493.34 0 0 85.79 -396.3 0 0 227.78 343.19 0 0 85.79 -343.19 0 0 331.96 -97.04 0zm573.86 -265.05c0,-97.89 27.24,-170.41 81.88,-217.56 45.46,-39.16 101.12,-58.74 166.66,-58.74 72.69,0 132.27,23.83 178.58,71.5 46.14,47.49 69.28,113.38 69.28,197.3 0,68.09 -10.21,121.55 -30.64,160.53 -20.43,38.99 -50.22,69.29 -89.37,90.91 -38.99,21.61 -81.72,32.34 -127.85,32.34 -74.22,0 -134.14,-23.66 -179.94,-71.16 -45.79,-47.49 -68.6,-115.93 -68.6,-205.13zm91.93 0.17c0,67.75 14.81,118.48 44.43,152.01 29.79,33.71 67.07,50.56 112.18,50.56 44.6,0 81.72,-16.86 111.5,-50.73 29.62,-33.88 44.43,-85.46 44.43,-154.75 0,-65.37 -14.97,-114.91 -44.77,-148.44 -29.79,-33.71 -66.91,-50.56 -111.17,-50.56 -45.11,0 -82.39,16.68 -112.18,50.21 -29.62,33.53 -44.43,84.1 -44.43,151.68zm508.83 264.88l0 -530.11 80.69 0 0 81.2c20.6,-37.62 39.67,-62.48 57.2,-74.4 17.54,-12.08 36.77,-18.04 57.71,-18.04 30.3,0 61.11,9.54 92.43,28.43l-32 82.9c-21.79,-12.26 -43.58,-18.39 -65.37,-18.39 -19.58,0 -37.11,5.96 -52.6,17.71 -15.49,11.74 -26.56,28.08 -33.2,49.03 -10.04,31.83 -14.97,66.73 -14.97,104.69l0 276.97 -89.89 0zm687.41 -194.07l87.84 12.26c-9.7,60.44 -34.21,107.59 -73.88,141.81 -39.67,34.21 -88.52,51.24 -146.23,51.24 -72.35,0 -130.57,-23.66 -174.49,-70.98 -44.1,-47.33 -66.05,-115.08 -66.05,-203.26 0,-57.2 9.54,-107.07 28.43,-149.97 18.9,-42.73 47.67,-74.9 86.47,-96.18 38.64,-21.45 80.69,-32.18 126.31,-32.18 57.38,0 104.53,14.48 140.96,43.58 36.6,29.11 60.09,70.48 70.3,123.93l-86.82 13.28c-8.34,-35.58 -22.98,-62.3 -44.26,-80.35 -21.11,-17.87 -46.64,-26.9 -76.61,-26.9 -45.28,0 -82.05,16.17 -110.48,48.52 -28.26,32.51 -42.39,83.58 -42.39,153.72 0,71.16 13.62,122.74 40.86,154.92 27.4,32.18 62.98,48.35 106.74,48.35 35.4,0 64.86,-10.73 88.35,-32.35 23.66,-21.45 38.64,-54.64 44.94,-99.42zm-209.72 281.91l25.87 -87.84 66.39 0 -16.51 53.11c28.43,3.41 49.88,12.09 64.35,26.22 14.47,13.96 21.62,29.62 21.62,46.81 0,24.86 -12.09,46.81 -36.26,65.88 -24,19.07 -60.44,28.6 -108.95,28.6 -27.41,0 -51.59,0 -72.35,0l5.1 -63.33c21.62,0.69 37.28,1.02 47.5,1.02 31.49,0 53.79,-4.26 66.55,-12.94 9.71,-6.64 14.65,-14.64 14.65,-24.34 0,-5.96 -1.87,-11.24 -5.79,-15.83 -3.75,-4.6 -10.73,-8.69 -20.94,-11.92 -10.38,-3.23 -27.4,-5.1 -51.24,-5.44zm720.43 -154.23c-33.36,28.43 -65.54,48.35 -96.35,60.09 -30.82,11.74 -63.84,17.53 -99.25,17.53 -58.22,0 -102.99,-14.12 -134.31,-42.56 -31.32,-28.25 -46.99,-64.52 -46.99,-108.61 0,-25.87 5.96,-49.53 17.71,-70.98 11.91,-21.45 27.4,-38.47 46.47,-51.42 19.24,-12.94 40.68,-22.81 64.69,-29.45 17.71,-4.59 44.43,-9.02 80.01,-13.44 72.51,-8.51 126.14,-18.9 160.36,-30.82 0.34,-12.26 0.51,-20.08 0.51,-23.32 0,-36.43 -8.51,-62.14 -25.54,-77.12 -22.98,-20.26 -57.2,-30.3 -102.48,-30.3 -42.39,0 -73.71,7.48 -93.8,22.29 -20.26,14.81 -35.07,41.03 -44.77,78.82l-87.84 -12.26c8,-37.62 21.11,-68.09 39.49,-91.25 18.39,-23.15 44.95,-40.85 79.67,-53.45 34.56,-12.43 74.9,-18.73 120.53,-18.73 45.28,0 82.22,5.28 110.65,16.01 28.25,10.73 49.2,24 62.48,40.17 13.28,16.17 22.64,36.6 28.09,61.28 2.89,15.33 4.42,42.9 4.42,82.57l0 119.17c0,83.24 1.87,135.84 5.62,158.14 3.58,22.3 11.07,43.58 21.97,64.01l-93.97 0c-9.02,-18.9 -14.81,-41.03 -17.37,-66.39zm-7.15 -199.18c-32.68,13.28 -81.72,24.52 -147.08,33.71 -37.11,5.28 -63.33,11.24 -78.65,17.88 -15.33,6.64 -27.07,16.34 -35.41,28.93 -8.34,12.77 -12.6,26.9 -12.6,42.57 0,23.66 9.02,43.57 27.24,59.41 18.22,15.83 44.78,23.83 79.67,23.83 34.56,0 65.37,-7.49 92.43,-22.64 26.9,-14.98 46.81,-35.58 59.41,-61.63 9.7,-20.26 14.48,-50.05 14.48,-89.37l0.51 -32.69z"/>
  <path class="fil3" d="M9389.42 4042.21l-734.69 0 0 395.84 676.58 0c49.85,0 86.96,11.24 111.33,33.35 24.74,22.12 36.74,51.73 36.74,88.09 0,36.36 -11.99,66.35 -35.99,89.22 -24.37,22.87 -61.47,34.48 -112.07,34.48l-676.58 0 0 458.8 759.8 0c51.35,0 89.96,11.99 115.82,35.61 26.24,23.61 39.36,55.48 39.36,94.83 0,37.86 -13.12,68.97 -39.36,92.59 -25.86,23.61 -64.47,35.61 -115.82,35.61l-886.13 0c-70.84,0 -121.82,-15.74 -152.93,-47.23 -31.11,-31.49 -46.86,-82.46 -46.86,-152.56l0 -1210.74c0,-46.86 7.12,-85.09 20.99,-114.7 13.87,-29.61 35.61,-51.35 65.22,-64.84 29.61,-13.5 67.47,-20.25 113.57,-20.25l861.02 0c52.1,0 90.71,11.63 115.82,34.48 25.11,23.24 37.86,53.61 37.86,90.71 0,38.23 -12.75,68.97 -37.86,92.21 -25.12,22.87 -63.73,34.48 -115.82,34.48z"/>
  <path id="_1" class="fil3" d="M9769.51 5087.65l360.22 -525.53 -303.25 -468.18c-28.49,-45.36 -49.85,-84.34 -64.1,-116.95 -14.25,-32.62 -21.37,-63.73 -21.37,-94.09 0,-30.73 13.5,-58.1 41.24,-82.84 27.36,-24.37 60.72,-36.74 100.46,-36.74 45.35,0 80.59,13.49 105.71,40.11 25.49,26.61 60.35,76.47 104.95,148.81l241.77 391.33 258.27 -391.33c20.99,-32.99 39.36,-61.1 54.36,-84.34 14.99,-23.62 29.24,-43.11 43.11,-58.48 14.25,-15.37 29.61,-26.99 46.86,-34.48 17.24,-7.87 37.11,-11.62 59.98,-11.62 40.85,0 74.22,12.37 100.46,36.74 25.86,24.73 38.98,53.6 38.98,87.33 0,49.11 -28.11,115.82 -84.71,200.17l-317.49 474.55 341.86 525.53c30.73,46.1 52.85,84.34 66.72,114.69 13.87,30.37 20.99,58.85 20.99,85.84 0,25.86 -6.37,49.11 -18.74,70.47 -12.37,20.99 -29.99,37.86 -52.48,50.23 -22.86,12.37 -48.35,18.74 -77.21,18.74 -30.73,0 -56.6,-6.37 -77.97,-19.12 -20.99,-12.74 -38.23,-28.86 -51.35,-47.6 -13.12,-19.12 -37.87,-56.23 -73.85,-110.95l-283.38 -445.31 -301 458.43c-23.24,36.74 -39.73,62.22 -49.85,76.85 -9.74,14.62 -21.74,28.86 -35.61,42.73 -13.87,13.87 -30.37,24.74 -49.48,32.99 -19.12,7.88 -41.23,11.99 -67.09,11.99 -39.36,0 -72.34,-11.99 -98.21,-36.36 -25.86,-23.99 -38.99,-59.22 -38.99,-105.33 0,-53.98 26.62,-120.32 80.22,-198.29z"/>
  <path id="_2" class="fil3" d="M12247.96 4042.21l-734.69 0 0 395.84 676.58 0c49.85,0 86.96,11.24 111.33,33.35 24.74,22.12 36.74,51.73 36.74,88.09 0,36.36 -11.99,66.35 -35.99,89.22 -24.37,22.87 -61.47,34.48 -112.07,34.48l-676.58 0 0 458.8 759.8 0c51.35,0 89.96,11.99 115.82,35.61 26.24,23.61 39.36,55.48 39.36,94.83 0,37.86 -13.12,68.97 -39.36,92.59 -25.86,23.61 -64.47,35.61 -115.82,35.61l-886.13 0c-70.84,0 -121.82,-15.74 -152.93,-47.23 -31.11,-31.49 -46.86,-82.46 -46.86,-152.56l0 -1210.74c0,-46.86 7.12,-85.09 20.99,-114.7 13.87,-29.61 35.61,-51.35 65.22,-64.84 29.61,-13.5 67.47,-20.25 113.57,-20.25l861.02 0c52.1,0 90.71,11.63 115.82,34.48 25.11,23.24 37.86,53.61 37.86,90.71 0,38.23 -12.75,68.97 -37.86,92.21 -25.12,22.87 -63.73,34.48 -115.82,34.48z"/>
  <path id="_3" class="fil3" d="M13231.17 5157.74l-258.27 -1025.56 0 1111.03c0,61.47 -13.87,107.58 -41.23,138.32 -27.37,30.73 -63.73,46.1 -108.71,46.1 -43.85,0 -79.83,-15.37 -107.57,-45.73 -27.74,-30.37 -41.61,-76.47 -41.61,-138.69l0 -1273.71c0,-70.47 18.36,-117.7 54.72,-142.44 36.74,-24.37 86.21,-36.74 148.07,-36.74l101.2 0c60.72,0 104.58,5.62 131.95,16.5 27.36,10.87 47.98,30.73 61.1,59.23 13.12,28.48 28.11,74.96 44.98,139.44l233.9 882.38 233.9 -882.38c16.87,-64.47 31.86,-110.95 44.98,-139.44 13.12,-28.49 33.36,-48.35 60.72,-59.23 27.36,-10.87 71.59,-16.5 132.31,-16.5l100.83 0c62.22,0 111.71,12.37 148.44,36.74 36.36,24.74 54.72,71.97 54.72,142.44l0 1273.71c0,61.47 -13.87,107.58 -41.23,138.32 -27.36,30.73 -64.1,46.1 -109.83,46.1 -43.11,0 -78.71,-15.37 -106.45,-46.1 -27.74,-30.73 -41.61,-76.85 -41.61,-138.32l0 -1111.03 -258.27 1025.56c-16.87,66.35 -30.37,115.46 -41.24,146.57 -10.5,30.73 -29.98,59.22 -58.47,84.71 -28.86,25.86 -68.22,38.6 -118.82,38.6 -38.23,0 -70.48,-8.24 -96.71,-24.73 -26.24,-16.5 -46.86,-37.49 -61.48,-62.98 -14.62,-25.86 -26.24,-53.98 -34.48,-85.09 -8.62,-31.11 -17.24,-63.72 -25.86,-97.08z"/>
  <path id="_4" class="fil3" d="M15185.59 4773.15l-298.74 0 0 455.81c0,65.22 -15.38,114.33 -46.11,148.07 -30.73,33.73 -69.72,50.6 -116.2,50.6 -49.1,0 -88.84,-16.49 -118.82,-49.85 -29.99,-33.36 -44.98,-82.46 -44.98,-146.56l0 -1241.1c0,-71.6 16.49,-122.95 49.48,-153.68 32.99,-30.74 85.09,-46.11 157.06,-46.11l418.32 0c123.7,0 218.91,9.37 285.63,28.49 65.97,18.36 122.95,48.73 170.93,91.08 47.98,42.74 84.34,94.46 109.08,155.93 25.11,61.48 37.48,130.82 37.48,207.67 0,164.18 -50.61,288.25 -151.44,372.96 -101.2,84.34 -251.51,126.7 -451.68,126.7zm-79.09 -737.69l-219.66 0 0 492.54 219.66 0c76.84,0 141.31,-8.25 193.04,-24.37 51.36,-16.12 90.71,-42.36 118.08,-79.1 26.99,-36.36 40.49,-84.71 40.49,-143.94 0,-71.21 -20.99,-128.94 -62.6,-173.54 -46.86,-47.61 -143.19,-71.6 -289,-71.6z"/>
  <path id="_5" class="fil3" d="M16380.2 3960.87l0 1172.12 661.23 0c52.48,0 92.96,12.75 121.07,38.23 28.49,25.86 42.36,58.1 42.36,96.72 0,39.36 -13.87,71.59 -41.61,95.95 -27.74,24.37 -68.6,36.74 -121.83,36.74l-787.55 0c-70.84,0 -121.82,-15.74 -152.93,-47.23 -31.11,-31.49 -46.86,-82.46 -46.86,-152.56l0 -1239.97c0,-65.6 14.99,-115.08 44.6,-148.07 29.61,-32.99 68.59,-49.48 116.95,-49.48 48.73,0 88.46,16.12 118.83,48.73 30.36,32.61 45.73,82.46 45.73,148.81z"/>
  <path id="_6" class="fil3" d="M18015.64 3763.33c167.18,0 310.37,33.73 429.94,101.58 119.57,67.47 210.28,163.81 271.76,288.63 61.47,124.82 92.21,271.38 92.21,439.69 0,124.45 -16.87,237.65 -50.61,339.23 -33.74,101.96 -83.97,190.05 -151.44,264.64 -67.47,74.59 -149.93,131.58 -248.14,171.31 -98.21,39.36 -210.29,59.22 -336.99,59.22 -125.94,0 -238.77,-20.24 -338.11,-61.09 -99.7,-40.49 -182.55,-97.84 -249.27,-171.68 -66.73,-73.85 -116.95,-162.68 -151.06,-266.89 -34.11,-103.83 -50.97,-216.28 -50.97,-336.99 0,-123.69 17.61,-236.9 53.23,-340.35 35.61,-103.09 86.96,-190.8 154.44,-263.51 67.09,-72.34 149.19,-127.82 245.9,-166.05 96.33,-38.61 206.16,-57.73 329.11,-57.73zm463.31 827.65c0,-117.7 -19.12,-220.03 -56.98,-306.62 -38.23,-86.21 -92.58,-151.43 -163.06,-196.04 -70.47,-44.23 -151.81,-66.34 -243.27,-66.34 -64.85,0 -125.2,12.37 -180.3,36.73 -55.48,24.74 -103.09,60.36 -142.82,107.21 -39.73,46.86 -71.22,106.83 -94.46,179.55 -22.87,73.1 -34.48,154.81 -34.48,245.52 0,91.84 11.62,174.31 34.48,248.52 23.24,73.84 55.85,135.32 97.83,184.05 41.98,48.73 90.34,85.09 144.69,109.08 54.72,24.37 114.33,36.36 179.55,36.36 83.59,0 160.06,-20.99 230.15,-62.6 69.72,-41.61 125.2,-106.08 166.81,-193.42 41.23,-86.96 61.85,-194.54 61.85,-321.99z"/>
  <path id="_7" class="fil3" d="M19407.8 3960.87l0 1172.12 661.23 0c52.48,0 92.96,12.75 121.07,38.23 28.49,25.86 42.36,58.1 42.36,96.72 0,39.36 -13.87,71.59 -41.61,95.95 -27.74,24.37 -68.6,36.74 -121.83,36.74l-787.55 0c-70.84,0 -121.82,-15.74 -152.93,-47.23 -31.11,-31.49 -46.86,-82.46 -46.86,-152.56l0 -1239.97c0,-65.6 14.99,-115.08 44.6,-148.07 29.61,-32.99 68.59,-49.48 116.95,-49.48 48.73,0 88.46,16.12 118.83,48.73 30.36,32.61 45.73,82.46 45.73,148.81z"/>
  <path id="_8" class="fil3" d="M21477.3 5218.09l-76.85 -202.04 -654.47 0 -76.85 206.16c-29.98,80.59 -55.48,134.94 -76.84,163.06 -20.99,28.11 -55.85,42.35 -104.21,42.35 -40.85,0 -77.21,-14.99 -108.7,-44.98 -31.49,-29.98 -47.23,-64.1 -47.23,-101.96 0,-22.11 3.75,-44.98 10.87,-68.22 7.49,-23.62 19.49,-55.85 36.36,-97.84l411.57 -1045.06c11.99,-29.98 25.86,-65.97 42.36,-107.95 16.49,-42.36 34.11,-77.22 52.85,-104.96 18.74,-27.74 43.11,-50.23 73.47,-67.47 30.36,-17.24 67.85,-25.86 112.45,-25.86 45.73,0 83.59,8.62 113.95,25.86 30.37,17.24 54.73,39.36 73.47,66.35 18.74,26.99 34.48,56.22 47.22,87.33 12.75,31.11 29.24,72.72 48.73,124.45l420.58 1038.69c32.99,79.09 49.48,136.44 49.48,172.43 0,37.1 -15.37,71.59 -46.48,102.7 -31.11,31.11 -68.97,46.48 -112.83,46.48 -25.49,0 -47.6,-4.49 -65.97,-13.87 -18,-8.99 -33.36,-21.36 -46.1,-37.1 -12.37,-15.74 -25.5,-40.11 -39.73,-72.34 -14.62,-32.62 -26.62,-61.48 -37.11,-86.22zm-645.47 -447.19l480.92 0 -242.52 -663.47 -238.4 663.47zm300.62 -1174.38l-109.83 -128.2 -109.82 128.2c-30.73,36.74 -51.36,58.85 -62.6,67.09 -10.87,7.88 -31.49,12 -61.48,12l-87.71 0c-29.99,0 -44.98,-5.25 -44.98,-15.38 0,-7.87 11.25,-26.23 34.11,-54.72l121.83 -146.19c10.12,-12.36 21.75,-26.61 34.86,-43.11 13.49,-16.49 24.74,-28.11 34.86,-35.23 9.74,-7.12 24.37,-12.37 43.11,-16.5 19.12,-4.13 41.23,-5.99 65.97,-5.99l61.47 0c48.35,0 81.34,5.99 99.34,17.61 18,11.63 44.6,39.36 79.47,83.21l126.32 148.07c21.37,28.11 31.86,44.6 31.86,49.48 0,12.37 -16.5,18.75 -49.48,18.75l-83.21 0c-22.11,0 -39.36,-3 -52.1,-9.37 -13.12,-6 -25.12,-15.74 -36.74,-28.86 -11.99,-13.5 -23.62,-26.99 -35.24,-40.86z"/>
  <path id="_9" class="fil3" d="M22490.13 3959l626.73 949.1 0 -958.09c0,-62.22 13.5,-108.7 40.11,-139.81 26.62,-31.11 62.6,-46.86 107.96,-46.86 46.48,0 83.59,15.37 110.58,46.48 26.99,31.11 40.49,77.97 40.49,140.19l0 1265.84c0,141.31 -58.48,211.78 -175.43,211.78 -29.24,0 -55.48,-4.12 -79.09,-12.74 -23.24,-8.24 -45.36,-21.75 -65.6,-39.73 -20.62,-18.37 -39.36,-39.73 -56.97,-64.47 -17.62,-24.37 -35.23,-49.48 -52.85,-74.97l-611.36 -937.1 0 942.35c0,61.48 -14.25,107.96 -42.74,139.44 -28.86,31.49 -65.6,47.22 -110.2,47.22 -46.1,0 -83.21,-15.74 -110.95,-47.6 -28.11,-31.86 -41.98,-78.34 -41.98,-139.07l0 -1241.47c0,-52.86 6,-94.09 17.62,-124.08 13.87,-32.99 37.11,-59.97 69.35,-80.96 32.23,-20.62 67.09,-31.11 104.21,-31.11 29.61,0 54.72,4.87 75.34,14.25 20.99,9.74 39.36,22.49 55.11,38.6 15.74,16.12 31.86,36.74 48.35,62.6 16.49,25.5 33.73,52.1 51.35,80.22z"/>
  <path id="_10" class="fil3" d="M23975.25 3790.32l425.07 0c110.58,0 205.41,10.13 284.51,30.74 79.47,20.62 151.05,59.22 215.53,115.45 167.56,143.56 251.52,362.1 251.52,654.85 0,96.71 -8.24,184.79 -25.11,264.64 -16.87,79.84 -43.11,151.82 -77.97,215.91 -35.24,64.1 -80.22,121.45 -135.32,172.05 -43.11,38.61 -90.34,69.72 -141.7,92.97 -51.35,23.61 -106.45,40.11 -165.3,49.48 -58.85,9.37 -125.58,14.25 -199.42,14.25l-425.07 0c-59.23,0 -103.83,-9 -134.19,-26.99 -29.99,-18 -49.48,-43.11 -58.48,-75.72 -9.37,-32.61 -13.87,-74.96 -13.87,-126.7l0 -1181.12c0,-70.09 15.74,-121.07 47.23,-152.56 31.49,-31.49 82.47,-47.23 152.56,-47.23zm126.32 258.64l0 1093.04 247.39 0c53.98,0 96.72,-1.5 127.45,-4.49 30.73,-3 62.6,-10.12 95.59,-21.75 32.99,-11.99 61.47,-28.48 85.46,-49.48 109.08,-92.21 163.81,-251.14 163.81,-476.8 0,-158.93 -23.99,-278.13 -71.97,-357.23 -47.98,-79.09 -107.2,-129.32 -177.29,-151.06 -70.48,-21.36 -155.56,-32.23 -254.89,-32.23l-215.54 0z"/>
  <path id="_11" class="fil3" d="M25451.37 5228.96l0 -1268.09c0,-65.97 14.99,-115.08 44.98,-148.07 29.99,-32.99 68.97,-49.48 116.58,-49.48 48.73,0 88.46,16.12 118.82,48.73 30.37,32.61 45.73,82.09 45.73,148.81l0 1268.09c0,66.73 -15.37,116.2 -45.73,149.19 -30.36,32.99 -70.09,49.48 -118.82,49.48 -46.86,0 -85.47,-16.49 -115.82,-49.85 -30.37,-33.36 -45.73,-82.84 -45.73,-148.81z"/>
  <path id="_12" class="fil3" d="M27172.27 5218.09l-76.85 -202.04 -654.47 0 -76.85 206.16c-29.98,80.59 -55.48,134.94 -76.84,163.06 -20.99,28.11 -55.85,42.35 -104.21,42.35 -40.85,0 -77.21,-14.99 -108.7,-44.98 -31.49,-29.98 -47.23,-64.1 -47.23,-101.96 0,-22.11 3.75,-44.98 10.87,-68.22 7.49,-23.62 19.49,-55.85 36.36,-97.84l411.57 -1045.06c11.99,-29.98 25.86,-65.97 42.36,-107.95 16.49,-42.36 34.11,-77.22 52.85,-104.96 18.74,-27.74 43.11,-50.23 73.47,-67.47 30.36,-17.24 67.85,-25.86 112.45,-25.86 45.73,0 83.59,8.62 113.95,25.86 30.37,17.24 54.73,39.36 73.47,66.35 18.74,26.99 34.48,56.22 47.22,87.33 12.75,31.11 29.24,72.72 48.73,124.45l420.58 1038.69c32.99,79.09 49.48,136.44 49.48,172.43 0,37.1 -15.37,71.59 -46.48,102.7 -31.11,31.11 -68.97,46.48 -112.83,46.48 -25.49,0 -47.6,-4.49 -65.97,-13.87 -18,-8.99 -33.36,-21.36 -46.1,-37.1 -12.37,-15.74 -25.5,-40.11 -39.73,-72.34 -14.62,-32.62 -26.62,-61.48 -37.11,-86.22zm-645.47 -447.19l480.92 0 -242.52 -663.47 -238.4 663.47z"/>
  <path id="_13" class="fil4 str2" d="M9389.42 4042.21l-734.69 0 0 395.84 676.58 0c49.85,0 86.96,11.24 111.33,33.35 24.74,22.12 36.74,51.73 36.74,88.09 0,36.36 -11.99,66.35 -35.99,89.22 -24.37,22.87 -61.47,34.48 -112.07,34.48l-676.58 0 0 458.8 759.8 0c51.35,0 89.96,11.99 115.82,35.61 26.24,23.61 39.36,55.48 39.36,94.83 0,37.86 -13.12,68.97 -39.36,92.59 -25.86,23.61 -64.47,35.61 -115.82,35.61l-886.13 0c-70.84,0 -121.82,-15.74 -152.93,-47.23 -31.11,-31.49 -46.86,-82.46 -46.86,-152.56l0 -1210.74c0,-46.86 7.12,-85.09 20.99,-114.7 13.87,-29.61 35.61,-51.35 65.22,-64.84 29.61,-13.5 67.47,-20.25 113.57,-20.25l861.02 0c52.1,0 90.71,11.63 115.82,34.48 25.11,23.24 37.86,53.61 37.86,90.71 0,38.23 -12.75,68.97 -37.86,92.21 -25.12,22.87 -63.73,34.48 -115.82,34.48z"/>
  <path id="_14" class="fil4 str2" d="M9769.51 5087.65l360.22 -525.53 -303.25 -468.18c-28.49,-45.36 -49.85,-84.34 -64.1,-116.95 -14.25,-32.62 -21.37,-63.73 -21.37,-94.09 0,-30.73 13.5,-58.1 41.24,-82.84 27.36,-24.37 60.72,-36.74 100.46,-36.74 45.35,0 80.59,13.49 105.71,40.11 25.49,26.61 60.35,76.47 104.95,148.81l241.77 391.33 258.27 -391.33c20.99,-32.99 39.36,-61.1 54.36,-84.34 14.99,-23.62 29.24,-43.11 43.11,-58.48 14.25,-15.37 29.61,-26.99 46.86,-34.48 17.24,-7.87 37.11,-11.62 59.98,-11.62 40.85,0 74.22,12.37 100.46,36.74 25.86,24.73 38.98,53.6 38.98,87.33 0,49.11 -28.11,115.82 -84.71,200.17l-317.49 474.55 341.86 525.53c30.73,46.1 52.85,84.34 66.72,114.69 13.87,30.37 20.99,58.85 20.99,85.84 0,25.86 -6.37,49.11 -18.74,70.47 -12.37,20.99 -29.99,37.86 -52.48,50.23 -22.86,12.37 -48.35,18.74 -77.21,18.74 -30.73,0 -56.6,-6.37 -77.97,-19.12 -20.99,-12.74 -38.23,-28.86 -51.35,-47.6 -13.12,-19.12 -37.87,-56.23 -73.85,-110.95l-283.38 -445.31 -301 458.43c-23.24,36.74 -39.73,62.22 -49.85,76.85 -9.74,14.62 -21.74,28.86 -35.61,42.73 -13.87,13.87 -30.37,24.74 -49.48,32.99 -19.12,7.88 -41.23,11.99 -67.09,11.99 -39.36,0 -72.34,-11.99 -98.21,-36.36 -25.86,-23.99 -38.99,-59.22 -38.99,-105.33 0,-53.98 26.62,-120.32 80.22,-198.29z"/>
  <path id="_15" class="fil4 str2" d="M12247.96 4042.21l-734.69 0 0 395.84 676.58 0c49.85,0 86.96,11.24 111.33,33.35 24.74,22.12 36.74,51.73 36.74,88.09 0,36.36 -11.99,66.35 -35.99,89.22 -24.37,22.87 -61.47,34.48 -112.07,34.48l-676.58 0 0 458.8 759.8 0c51.35,0 89.96,11.99 115.82,35.61 26.24,23.61 39.36,55.48 39.36,94.83 0,37.86 -13.12,68.97 -39.36,92.59 -25.86,23.61 -64.47,35.61 -115.82,35.61l-886.13 0c-70.84,0 -121.82,-15.74 -152.93,-47.23 -31.11,-31.49 -46.86,-82.46 -46.86,-152.56l0 -1210.74c0,-46.86 7.12,-85.09 20.99,-114.7 13.87,-29.61 35.61,-51.35 65.22,-64.84 29.61,-13.5 67.47,-20.25 113.57,-20.25l861.02 0c52.1,0 90.71,11.63 115.82,34.48 25.11,23.24 37.86,53.61 37.86,90.71 0,38.23 -12.75,68.97 -37.86,92.21 -25.12,22.87 -63.73,34.48 -115.82,34.48z"/>
  <path id="_16" class="fil4 str2" d="M13231.17 5157.74l-258.27 -1025.56 0 1111.03c0,61.47 -13.87,107.58 -41.23,138.32 -27.37,30.73 -63.73,46.1 -108.71,46.1 -43.85,0 -79.83,-15.37 -107.57,-45.73 -27.74,-30.37 -41.61,-76.47 -41.61,-138.69l0 -1273.71c0,-70.47 18.36,-117.7 54.72,-142.44 36.74,-24.37 86.21,-36.74 148.07,-36.74l101.2 0c60.72,0 104.58,5.62 131.95,16.5 27.36,10.87 47.98,30.73 61.1,59.23 13.12,28.48 28.11,74.96 44.98,139.44l233.9 882.38 233.9 -882.38c16.87,-64.47 31.86,-110.95 44.98,-139.44 13.12,-28.49 33.36,-48.35 60.72,-59.23 27.36,-10.87 71.59,-16.5 132.31,-16.5l100.83 0c62.22,0 111.71,12.37 148.44,36.74 36.36,24.74 54.72,71.97 54.72,142.44l0 1273.71c0,61.47 -13.87,107.58 -41.23,138.32 -27.36,30.73 -64.1,46.1 -109.83,46.1 -43.11,0 -78.71,-15.37 -106.45,-46.1 -27.74,-30.73 -41.61,-76.85 -41.61,-138.32l0 -1111.03 -258.27 1025.56c-16.87,66.35 -30.37,115.46 -41.24,146.57 -10.5,30.73 -29.98,59.22 -58.47,84.71 -28.86,25.86 -68.22,38.6 -118.82,38.6 -38.23,0 -70.48,-8.24 -96.71,-24.73 -26.24,-16.5 -46.86,-37.49 -61.48,-62.98 -14.62,-25.86 -26.24,-53.98 -34.48,-85.09 -8.62,-31.11 -17.24,-63.72 -25.86,-97.08z"/>
  <path id="_17" class="fil4 str2" d="M15185.59 4773.15l-298.74 0 0 455.81c0,65.22 -15.38,114.33 -46.11,148.07 -30.73,33.73 -69.72,50.6 -116.2,50.6 -49.1,0 -88.84,-16.49 -118.82,-49.85 -29.99,-33.36 -44.98,-82.46 -44.98,-146.56l0 -1241.1c0,-71.6 16.49,-122.95 49.48,-153.68 32.99,-30.74 85.09,-46.11 157.06,-46.11l418.32 0c123.7,0 218.91,9.37 285.63,28.49 65.97,18.36 122.95,48.73 170.93,91.08 47.98,42.74 84.34,94.46 109.08,155.93 25.11,61.48 37.48,130.82 37.48,207.67 0,164.18 -50.61,288.25 -151.44,372.96 -101.2,84.34 -251.51,126.7 -451.68,126.7zm-79.09 -737.69l-219.66 0 0 492.54 219.66 0c76.84,0 141.31,-8.25 193.04,-24.37 51.36,-16.12 90.71,-42.36 118.08,-79.1 26.99,-36.36 40.49,-84.71 40.49,-143.94 0,-71.21 -20.99,-128.94 -62.6,-173.54 -46.86,-47.61 -143.19,-71.6 -289,-71.6z"/>
  <path id="_18" class="fil4 str2" d="M16380.2 3960.87l0 1172.12 661.23 0c52.48,0 92.96,12.75 121.07,38.23 28.49,25.86 42.36,58.1 42.36,96.72 0,39.36 -13.87,71.59 -41.61,95.95 -27.74,24.37 -68.6,36.74 -121.83,36.74l-787.55 0c-70.84,0 -121.82,-15.74 -152.93,-47.23 -31.11,-31.49 -46.86,-82.46 -46.86,-152.56l0 -1239.97c0,-65.6 14.99,-115.08 44.6,-148.07 29.61,-32.99 68.59,-49.48 116.95,-49.48 48.73,0 88.46,16.12 118.83,48.73 30.36,32.61 45.73,82.46 45.73,148.81z"/>
  <path id="_19" class="fil4 str2" d="M18015.64 3763.33c167.18,0 310.37,33.73 429.94,101.58 119.57,67.47 210.28,163.81 271.76,288.63 61.47,124.82 92.21,271.38 92.21,439.69 0,124.45 -16.87,237.65 -50.61,339.23 -33.74,101.96 -83.97,190.05 -151.44,264.64 -67.47,74.59 -149.93,131.58 -248.14,171.31 -98.21,39.36 -210.29,59.22 -336.99,59.22 -125.94,0 -238.77,-20.24 -338.11,-61.09 -99.7,-40.49 -182.55,-97.84 -249.27,-171.68 -66.73,-73.85 -116.95,-162.68 -151.06,-266.89 -34.11,-103.83 -50.97,-216.28 -50.97,-336.99 0,-123.69 17.61,-236.9 53.23,-340.35 35.61,-103.09 86.96,-190.8 154.44,-263.51 67.09,-72.34 149.19,-127.82 245.9,-166.05 96.33,-38.61 206.16,-57.73 329.11,-57.73zm463.31 827.65c0,-117.7 -19.12,-220.03 -56.98,-306.62 -38.23,-86.21 -92.58,-151.43 -163.06,-196.04 -70.47,-44.23 -151.81,-66.34 -243.27,-66.34 -64.85,0 -125.2,12.37 -180.3,36.73 -55.48,24.74 -103.09,60.36 -142.82,107.21 -39.73,46.86 -71.22,106.83 -94.46,179.55 -22.87,73.1 -34.48,154.81 -34.48,245.52 0,91.84 11.62,174.31 34.48,248.52 23.24,73.84 55.85,135.32 97.83,184.05 41.98,48.73 90.34,85.09 144.69,109.08 54.72,24.37 114.33,36.36 179.55,36.36 83.59,0 160.06,-20.99 230.15,-62.6 69.72,-41.61 125.2,-106.08 166.81,-193.42 41.23,-86.96 61.85,-194.54 61.85,-321.99z"/>
  <path id="_20" class="fil4 str2" d="M19407.8 3960.87l0 1172.12 661.23 0c52.48,0 92.96,12.75 121.07,38.23 28.49,25.86 42.36,58.1 42.36,96.72 0,39.36 -13.87,71.59 -41.61,95.95 -27.74,24.37 -68.6,36.74 -121.83,36.74l-787.55 0c-70.84,0 -121.82,-15.74 -152.93,-47.23 -31.11,-31.49 -46.86,-82.46 -46.86,-152.56l0 -1239.97c0,-65.6 14.99,-115.08 44.6,-148.07 29.61,-32.99 68.59,-49.48 116.95,-49.48 48.73,0 88.46,16.12 118.83,48.73 30.36,32.61 45.73,82.46 45.73,148.81z"/>
  <path id="_21" class="fil4 str2" d="M21477.3 5218.09l-76.85 -202.04 -654.47 0 -76.85 206.16c-29.98,80.59 -55.48,134.94 -76.84,163.06 -20.99,28.11 -55.85,42.35 -104.21,42.35 -40.85,0 -77.21,-14.99 -108.7,-44.98 -31.49,-29.98 -47.23,-64.1 -47.23,-101.96 0,-22.11 3.75,-44.98 10.87,-68.22 7.49,-23.62 19.49,-55.85 36.36,-97.84l411.57 -1045.06c11.99,-29.98 25.86,-65.97 42.36,-107.95 16.49,-42.36 34.11,-77.22 52.85,-104.96 18.74,-27.74 43.11,-50.23 73.47,-67.47 30.36,-17.24 67.85,-25.86 112.45,-25.86 45.73,0 83.59,8.62 113.95,25.86 30.37,17.24 54.73,39.36 73.47,66.35 18.74,26.99 34.48,56.22 47.22,87.33 12.75,31.11 29.24,72.72 48.73,124.45l420.58 1038.69c32.99,79.09 49.48,136.44 49.48,172.43 0,37.1 -15.37,71.59 -46.48,102.7 -31.11,31.11 -68.97,46.48 -112.83,46.48 -25.49,0 -47.6,-4.49 -65.97,-13.87 -18,-8.99 -33.36,-21.36 -46.1,-37.1 -12.37,-15.74 -25.5,-40.11 -39.73,-72.34 -14.62,-32.62 -26.62,-61.48 -37.11,-86.22zm-645.47 -447.19l480.92 0 -242.52 -663.47 -238.4 663.47zm300.62 -1174.38l-109.83 -128.2 -109.82 128.2c-30.73,36.74 -51.36,58.85 -62.6,67.09 -10.87,7.88 -31.49,12 -61.48,12l-87.71 0c-29.99,0 -44.98,-5.25 -44.98,-15.38 0,-7.87 11.25,-26.23 34.11,-54.72l121.83 -146.19c10.12,-12.36 21.75,-26.61 34.86,-43.11 13.49,-16.49 24.74,-28.11 34.86,-35.23 9.74,-7.12 24.37,-12.37 43.11,-16.5 19.12,-4.13 41.23,-5.99 65.97,-5.99l61.47 0c48.35,0 81.34,5.99 99.34,17.61 18,11.63 44.6,39.36 79.47,83.21l126.32 148.07c21.37,28.11 31.86,44.6 31.86,49.48 0,12.37 -16.5,18.75 -49.48,18.75l-83.21 0c-22.11,0 -39.36,-3 -52.1,-9.37 -13.12,-6 -25.12,-15.74 -36.74,-28.86 -11.99,-13.5 -23.62,-26.99 -35.24,-40.86z"/>
  <path id="_22" class="fil4 str2" d="M22490.13 3959l626.73 949.1 0 -958.09c0,-62.22 13.5,-108.7 40.11,-139.81 26.62,-31.11 62.6,-46.86 107.96,-46.86 46.48,0 83.59,15.37 110.58,46.48 26.99,31.11 40.49,77.97 40.49,140.19l0 1265.84c0,141.31 -58.48,211.78 -175.43,211.78 -29.24,0 -55.48,-4.12 -79.09,-12.74 -23.24,-8.24 -45.36,-21.75 -65.6,-39.73 -20.62,-18.37 -39.36,-39.73 -56.97,-64.47 -17.62,-24.37 -35.23,-49.48 -52.85,-74.97l-611.36 -937.1 0 942.35c0,61.48 -14.25,107.96 -42.74,139.44 -28.86,31.49 -65.6,47.22 -110.2,47.22 -46.1,0 -83.21,-15.74 -110.95,-47.6 -28.11,-31.86 -41.98,-78.34 -41.98,-139.07l0 -1241.47c0,-52.86 6,-94.09 17.62,-124.08 13.87,-32.99 37.11,-59.97 69.35,-80.96 32.23,-20.62 67.09,-31.11 104.21,-31.11 29.61,0 54.72,4.87 75.34,14.25 20.99,9.74 39.36,22.49 55.11,38.6 15.74,16.12 31.86,36.74 48.35,62.6 16.49,25.5 33.73,52.1 51.35,80.22z"/>
  <path id="_23" class="fil4 str2" d="M23975.25 3790.32l425.07 0c110.58,0 205.41,10.13 284.51,30.74 79.47,20.62 151.05,59.22 215.53,115.45 167.56,143.56 251.52,362.1 251.52,654.85 0,96.71 -8.24,184.79 -25.11,264.64 -16.87,79.84 -43.11,151.82 -77.97,215.91 -35.24,64.1 -80.22,121.45 -135.32,172.05 -43.11,38.61 -90.34,69.72 -141.7,92.97 -51.35,23.61 -106.45,40.11 -165.3,49.48 -58.85,9.37 -125.58,14.25 -199.42,14.25l-425.07 0c-59.23,0 -103.83,-9 -134.19,-26.99 -29.99,-18 -49.48,-43.11 -58.48,-75.72 -9.37,-32.61 -13.87,-74.96 -13.87,-126.7l0 -1181.12c0,-70.09 15.74,-121.07 47.23,-152.56 31.49,-31.49 82.47,-47.23 152.56,-47.23zm126.32 258.64l0 1093.04 247.39 0c53.98,0 96.72,-1.5 127.45,-4.49 30.73,-3 62.6,-10.12 95.59,-21.75 32.99,-11.99 61.47,-28.48 85.46,-49.48 109.08,-92.21 163.81,-251.14 163.81,-476.8 0,-158.93 -23.99,-278.13 -71.97,-357.23 -47.98,-79.09 -107.2,-129.32 -177.29,-151.06 -70.48,-21.36 -155.56,-32.23 -254.89,-32.23l-215.54 0z"/>
  <path id="_24" class="fil4 str2" d="M25451.37 5228.96l0 -1268.09c0,-65.97 14.99,-115.08 44.98,-148.07 29.99,-32.99 68.97,-49.48 116.58,-49.48 48.73,0 88.46,16.12 118.82,48.73 30.37,32.61 45.73,82.09 45.73,148.81l0 1268.09c0,66.73 -15.37,116.2 -45.73,149.19 -30.36,32.99 -70.09,49.48 -118.82,49.48 -46.86,0 -85.47,-16.49 -115.82,-49.85 -30.37,-33.36 -45.73,-82.84 -45.73,-148.81z"/>
  <path id="_25" class="fil4 str2" d="M27172.27 5218.09l-76.85 -202.04 -654.47 0 -76.85 206.16c-29.98,80.59 -55.48,134.94 -76.84,163.06 -20.99,28.11 -55.85,42.35 -104.21,42.35 -40.85,0 -77.21,-14.99 -108.7,-44.98 -31.49,-29.98 -47.23,-64.1 -47.23,-101.96 0,-22.11 3.75,-44.98 10.87,-68.22 7.49,-23.62 19.49,-55.85 36.36,-97.84l411.57 -1045.06c11.99,-29.98 25.86,-65.97 42.36,-107.95 16.49,-42.36 34.11,-77.22 52.85,-104.96 18.74,-27.74 43.11,-50.23 73.47,-67.47 30.36,-17.24 67.85,-25.86 112.45,-25.86 45.73,0 83.59,8.62 113.95,25.86 30.37,17.24 54.73,39.36 73.47,66.35 18.74,26.99 34.48,56.22 47.22,87.33 12.75,31.11 29.24,72.72 48.73,124.45l420.58 1038.69c32.99,79.09 49.48,136.44 49.48,172.43 0,37.1 -15.37,71.59 -46.48,102.7 -31.11,31.11 -68.97,46.48 -112.83,46.48 -25.49,0 -47.6,-4.49 -65.97,-13.87 -18,-8.99 -33.36,-21.36 -46.1,-37.1 -12.37,-15.74 -25.5,-40.11 -39.73,-72.34 -14.62,-32.62 -26.62,-61.48 -37.11,-86.22zm-645.47 -447.19l480.92 0 -242.52 -663.47 -238.4 663.47z"/>
  <image id="ChatGPT_x0020_Image_x0020_5_x0020_de_x0020_out._x0020_de_x0020_2025_x002c__x0020_07_24_05.png" x="-0" y="0" width="7798.33" height="7798.33" xlink:href="Camara_Exemplolndia_Images\Camara_Exemplolndia_ImgID1.png"/>
 </g>
</svg>
